<?xml version="1.0" encoding="UTF-8"?>
<svg id="Layer_1" data-name="Layer 1" xmlns="http://www.w3.org/2000/svg" viewBox="0 0 333.84 78.6">
  <defs>
    <style>
      .cls-1 {
        fill: #ffce06;
      }

      .cls-1, .cls-2, .cls-3, .cls-4, .cls-5, .cls-6, .cls-7, .cls-8, .cls-9, .cls-10, .cls-11, .cls-12, .cls-13, .cls-14, .cls-15, .cls-16, .cls-17, .cls-18, .cls-19 {
        stroke-width: 0px;
      }

      .cls-2 {
        fill: #f2bd1f;
      }

      .cls-3 {
        fill: #9bd6ce;
      }

      .cls-4 {
        fill: #f3d718;
      }

      .cls-5 {
        fill: #f57f20;
      }

      .cls-6 {
        fill: #f393be;
      }

      .cls-7 {
        fill: #e9a7cb;
      }

      .cls-8 {
        fill: #429d46;
      }

      .cls-9 {
        fill: #93a6d5;
      }

      .cls-10 {
        fill: #f16035;
      }

      .cls-11 {
        fill: #d63127;
      }

      .cls-12 {
        fill: #8ec73f;
      }

      .cls-13 {
        fill: #f36f21;
      }

      .cls-14 {
        fill: #f68c34;
      }

      .cls-15 {
        fill: #93c949;
      }

      .cls-16 {
        fill: #f8a07b;
      }

      .cls-17 {
        fill: #7dc242;
      }

      .cls-18 {
        fill: #fff;
      }

      .cls-19 {
        fill: #d26b3e;
      }
    </style>
  </defs>
  <path class="cls-18" d="M37.09,70.43c-.14,0-.28-.03-.41-.1-.43-.22-.6-.76-.38-1.19,6.17-11.87,6.12-15.92,4.98-17.23-1.72-2-7.71.07-13.5,2.07l-1.07.37c-15.93,5.47-19.9-5.17-19.94-5.27-.16-.46.08-.96.54-1.12.46-.16.96.08,1.12.53.14.38,3.49,9.08,17.7,4.2l1.07-.37c6.93-2.39,12.91-4.46,15.41-1.56,2.26,2.62.79,8.54-4.75,19.2-.16.3-.46.48-.78.48Z"/>
  <g>
    <path class="cls-9" d="M38.73,64.84c-1.11-1.5-2.77,1.63-2.48,3.65.24,1.6,3.3,2.88,8.51-.21s4.46-5.25,2.68-4.68c-.9.29-3.14,1.79-5.01,2.63-2.55,1.15-3.46-1.06-3.71-1.4Z"/>
    <path class="cls-18" d="M39.16,70.29c-.9,0-1.51-.2-1.85-.37-.67-.32-1.1-.83-1.19-1.42-.22-1.52.64-3.71,1.62-4.12.39-.17.77-.03,1.07.38h0s.07.1.11.18c.35.59,1.27,2.15,3.44,1.17.93-.42,1.96-1.01,2.87-1.53.91-.52,1.69-.97,2.15-1.11.67-.21,1.23-.07,1.42.37.35.78-.48,2.44-4,4.53-2.53,1.5-4.39,1.91-5.66,1.91ZM38.08,64.57c-.07,0-.15.02-.23.05-.8.33-1.7,2.33-1.47,3.85.07.5.46.95,1.05,1.23,1.63.78,4.35.2,7.28-1.53,3.62-2.15,4.14-3.7,3.9-4.21-.14-.32-.58-.41-1.12-.23-.43.14-1.21.58-2.1,1.09-.91.52-1.95,1.11-2.89,1.54-2.37,1.06-3.42-.69-3.76-1.27-.04-.07-.08-.13-.1-.16-.17-.23-.35-.34-.55-.34Z"/>
  </g>
  <path class="cls-18" d="M13.1,5.75s-2.87-.49-3,4.52,5.16,3.89,6.14,1.96.85-6.65-3.14-6.48Z"/>
  <path class="cls-18" d="M30.43,70.43c-.29,0-.57-.14-.74-.4-.26-.41-.15-.95.26-1.22.05-.03,4.82-3.16,5.3-6.42.14-.97-.13-1.84-.83-2.66-1.03-1.2-4.19-1.06-7.54-.92-7.71.34-19.36.85-21.12-14.63C3.28,22.42,11.59,12.32,11.95,11.9c.31-.37.87-.42,1.24-.1.37.31.42.87.11,1.24-.08.1-8.17,10.01-5.78,30.96,1.58,13.85,11.4,13.41,19.29,13.07,4.12-.18,7.37-.33,8.96,1.54,1.03,1.21,1.44,2.58,1.23,4.06-.59,4.05-5.86,7.49-6.08,7.64-.15.1-.31.14-.48.14Z"/>
  <path class="cls-18" d="M18.22,46.34c-1.33,0-2.72-.99-4.36-3.08-1.86-2.38-4.71-1.05-8.24.93-2.01,1.13-3.6,2.02-4.75,1.27-.93-.61-.92-1.91-.83-2.83C2.07,21.61,11.07,12.95,11.45,12.59c.35-.33.91-.32,1.24.04.33.35.32.91-.04,1.25-.09.08-8.9,8.62-10.86,28.92-.09.97.07,1.21.07,1.21.33.05,1.88-.79,2.9-1.36,3.01-1.69,7.55-4.24,10.49-.48,1.61,2.06,2.55,2.46,3.04,2.4.88-.07,1.75-1.62,2.59-3.13,1.62-2.91,3.85-6.88,8.73-4.67.44.2.64.72.44,1.17-.2.44-.72.64-1.17.44-3.17-1.44-4.56.52-6.46,3.92-1.12,2-2.17,3.88-4,4.02-.07,0-.14,0-.21,0Z"/>
  <path class="cls-18" d="M12.5,36.49c-1.23,0-2.02-.57-2.5-1.09-3.81-4.24.68-20.56,1.2-22.4.13-.47.62-.74,1.09-.61.47.13.74.62.61,1.09-1.35,4.76-4.27,17.76-1.59,20.74.25.28.7.64,1.64.47,1.68-.29,3.09-2.57,4.45-4.77,1.8-2.91,3.83-6.2,7.15-5.6,1.59.29,2.9.96,4.06,1.54,1.34.68,2.4,1.21,3.34.91.95-.31,1.94-1.5,3.01-3.64.22-.43.75-.61,1.18-.39.43.22.61.75.39,1.18-1.32,2.61-2.6,4.05-4.04,4.52-1.63.54-3.11-.22-4.68-1.01-1.1-.56-2.24-1.13-3.58-1.38-2.14-.39-3.69,2.12-5.33,4.79-1.56,2.54-3.18,5.16-5.65,5.58-.27.05-.52.07-.76.07Z"/>
  <g>
    <path class="cls-9" d="M31.81,65.4c-.19-1.86-3.22-.01-3.99,1.87-.61,1.49,1.36,4.16,7.42,4.16s6.52-2.23,4.69-2.65c-.92-.21-3.61-.06-5.65-.29-2.78-.32-2.43-2.68-2.48-3.09Z"/>
    <path class="cls-18" d="M35.24,71.56c-5.02,0-6.74-1.75-7.25-2.51-.41-.61-.52-1.28-.29-1.83.58-1.42,2.44-2.87,3.5-2.71.42.06.68.37.73.87h0s0,.12,0,.22c0,.68,0,2.5,2.36,2.77,1.02.12,2.2.14,3.25.15,1.04.02,1.95.03,2.42.14.68.16,1.09.57,1.03,1.05-.1.85-1.66,1.85-5.76,1.85ZM31.04,64.75c-.9,0-2.55,1.21-3.11,2.57-.19.47-.09,1.05.27,1.59,1.01,1.5,3.64,2.4,7.04,2.4,4.21,0,5.44-1.07,5.51-1.63.04-.34-.29-.65-.84-.77-.44-.1-1.33-.12-2.36-.13-1.05-.02-2.24-.04-3.27-.16-2.58-.3-2.58-2.34-2.58-3.01,0-.08,0-.15,0-.19-.04-.39-.21-.61-.52-.65-.04,0-.08,0-.12,0Z"/>
  </g>
  <g>
    <path class="cls-9" d="M37.68,23.55c-1.09.88-2.73.41-3.13-.93,0-.02-.01-.04-.02-.06-.56-1.95-3.85-2.52-5.42-2.61-2.84-.17-2.49-1.64-1.09-2.21s4.41-.16,4.92,1.5,1.86.77,3.26-.61,4.23-6.86,6.22-6.09c2.54.97-2.43,4.66-3.25,5.22-.1.07-.04.22.08.2,1.68-.27,6.56-.83,6.17,1.95-.29,2.04-4.06,1.4-5.91,2.43-.82.45-1.42.88-1.84,1.22Z"/>
    <path class="cls-18" d="M36.42,24.13c-.21,0-.42-.03-.62-.09-.67-.21-1.17-.71-1.37-1.38l-.02-.05c-.63-2.2-4.83-2.5-5.31-2.53-1.82-.11-2.2-.72-2.25-1.08-.08-.51.37-1.06,1.13-1.37,1-.41,2.64-.31,3.76.21.69.33,1.15.8,1.33,1.37.14.46.35.72.63.79.67.18,1.71-.75,2.43-1.45.4-.39.93-1.13,1.53-1.99,1.48-2.1,3.33-4.71,4.83-4.13.48.18.74.47.79.86.19,1.67-3.97,4.54-4.01,4.57,1.34-.24,4.63-.62,5.85.57.39.38.54.88.45,1.5-.19,1.36-1.81,1.61-3.38,1.85-.94.14-1.91.29-2.59.67-.7.39-1.32.79-1.82,1.21h0c-.38.31-.86.48-1.34.48ZM29.48,17.62c-.52,0-1.02.08-1.41.24-.64.26-1.04.71-.98,1.1.08.47.83.8,2.02.87.5.03,4.86.35,5.53,2.7l.02.06c.18.59.62,1.03,1.21,1.21.6.18,1.24.05,1.73-.34.52-.42,1.14-.83,1.86-1.23.72-.4,1.71-.55,2.67-.7,1.55-.24,3.01-.46,3.17-1.64.08-.54-.05-.96-.38-1.28-1.14-1.12-4.32-.74-5.64-.53-.11.02-.22-.04-.26-.15-.04-.1,0-.22.09-.28.86-.58,4.05-3.03,3.9-4.34-.03-.29-.24-.51-.63-.66-1.32-.5-3.18,2.12-4.53,4.04-.61.87-1.14,1.61-1.56,2.02-1.23,1.2-2.05,1.66-2.67,1.51-.37-.09-.64-.42-.81-.96-.19-.63-.76-1.01-1.2-1.21-.62-.29-1.41-.45-2.14-.45Z"/>
  </g>
  <g>
    <path class="cls-7" d="M9.38,9.68l8.99-.65c3.13.04,3.01-1.95,2.92-2.34h0s-3.59.56-3.59.56c0,0-1.03-2.43-3.53-2.63-2.86-.23-5.1,1.52-4.79,5.06Z"/>
    <path class="cls-18" d="M9.14,9.96l-.02-.26c-.15-1.72.27-3.13,1.22-4.09.92-.93,2.29-1.37,3.84-1.25,2.24.18,3.35,2.01,3.66,2.61l3.64-.57.05.24c.08.34.08,1.09-.41,1.69-.53.65-1.44,1-2.77.96l-9.22.67ZM13.67,4.86c-1.2,0-2.24.39-2.96,1.11-.8.8-1.17,1.98-1.09,3.42l8.73-.63s.05,0,.08,0c1.12,0,1.89-.26,2.3-.77.29-.36.34-.76.33-1.01l-3.52.55-.08-.19s-1.01-2.29-3.31-2.48c-.16-.01-.32-.02-.47-.02Z"/>
  </g>
  <g>
    <path class="cls-9" d="M35.31,29.99l3.45-10.81c.05-.15.19-.25.35-.25h15.18c.24,0,.42.23.35.47-.94,3.22-3.6,12.56-4.06,14.18-.04.15-.17.25-.32.26l-18.43,1.58c-.09,0-.18-.02-.25-.07-3.52-2.66-6.87-4.75-8.74-5.87-.34-.2-.16-.72.23-.68,3.43.41,10.33,1.26,11.85,1.44.17.02.34-.08.39-.25Z"/>
    <path class="cls-18" d="M31.79,35.67c-.14,0-.27-.04-.38-.13-3.57-2.7-6.99-4.82-8.71-5.85-.26-.16-.37-.45-.27-.74.1-.29.36-.45.67-.42,3.43.41,10.33,1.26,11.85,1.45.06,0,.09-.02.11-.07l3.45-10.8c.08-.26.32-.44.6-.44h15.18c.2,0,.38.09.5.25.12.16.16.36.1.55-.94,3.22-3.6,12.56-4.06,14.17-.07.25-.29.43-.55.45l-18.43,1.58s-.04,0-.05,0ZM23.02,29.05c-.06,0-.08.04-.09.07-.01.04-.01.09.05.12,1.73,1.03,5.17,3.17,8.76,5.88.02.02.05.02.07.02l18.43-1.58s.08-.03.09-.07c.46-1.62,3.13-10.95,4.06-14.18.01-.04,0-.07-.02-.09-.01-.02-.04-.04-.08-.04h-15.18s-.08.03-.1.07l-3.45,10.81c-.09.29-.37.48-.67.43-1.52-.19-8.42-1.03-11.85-1.44,0,0-.01,0-.02,0Z"/>
  </g>
  <g>
    <path class="cls-9" d="M27.64,36.52c-.04-.29.59-1.18.7-1.46.69-1.68-.2-3.26-2.01-3.72,0,0,.05-1.74,2.13-.9,1.31.53,1.31,2.41,1.43,3.03s0,1.46,1.13,1.37c3.24-.25,11.13-.88,10.66,1.36-.23,1.1-1.47.38-2.79.07-1.08-.26-2.31-.05-2.31-.05,0,0,.27,2.58-2.39,3.32-1.54.43-4.07-.61-5.36-1.22-.53-.25-.93-.72-1.09-1.28-.05-.18-.09-.37-.12-.53Z"/>
    <path class="cls-18" d="M33.38,39.79c-1.52,0-3.45-.79-4.59-1.33-.56-.27-.99-.76-1.15-1.36-.06-.21-.1-.39-.12-.55h0c-.03-.22.18-.6.48-1.11.1-.17.19-.33.23-.41.31-.74.3-1.5-.02-2.14-.35-.69-1.02-1.19-1.9-1.41l-.1-.02v-.1s.03-.71.56-1.06c.41-.27,1-.25,1.75.05,1.16.47,1.34,1.88,1.45,2.73.02.16.04.29.06.39.02.11.04.22.05.33.07.54.12,1.02.95.94h.04c3.01-.24,9.28-.73,10.54.7.21.23.28.51.21.81-.06.27-.18.47-.37.58-.4.24-1.02.04-1.73-.17-.27-.08-.56-.17-.85-.24-.86-.21-1.83-.11-2.15-.06.01.53-.09,2.67-2.49,3.33-.26.07-.55.11-.85.11ZM27.76,36.51c.02.14.06.32.11.52.15.53.52.97,1.02,1.2,1.33.63,3.79,1.62,5.27,1.21,2.53-.7,2.3-3.16,2.3-3.19v-.12s.1-.02.1-.02c.05,0,1.27-.21,2.36.05.3.07.58.16.86.25.63.19,1.22.38,1.53.2.12-.07.21-.21.25-.41.05-.23,0-.43-.15-.6-1.18-1.34-7.59-.83-10.33-.62h-.04c-1.06.07-1.15-.63-1.22-1.16-.01-.11-.03-.21-.05-.31-.02-.11-.04-.25-.06-.41-.1-.79-.27-2.12-1.3-2.53-.67-.27-1.18-.3-1.52-.07-.32.21-.41.58-.43.76.9.25,1.6.78,1.96,1.51.35.7.37,1.54.03,2.35-.04.1-.14.26-.25.45-.18.3-.47.8-.45.95h0Z"/>
  </g>
  <polygon class="cls-18" points="34.66 30.99 36.95 31.57 34.4 31.75 32.09 30.99 34.66 30.99"/>
  <polygon class="cls-18" points="36.97 31.86 39.17 32.43 36.21 32.68 34.77 32.04 36.97 31.86"/>
  <polygon class="cls-18" points="34.01 32.27 36.22 32.84 33.26 33.09 31.81 32.45 34.01 32.27"/>
  <polygon class="cls-18" points="39.45 32.85 41.23 33.26 38.55 33.68 37.11 33.04 39.45 32.85"/>
  <polygon class="cls-18" points="36.48 30.2 49.49 32.68 53.09 20.15 39.54 20.13 36.48 30.2"/>
  <path class="cls-18" d="M37.03,47.88c-18.01,0-23.55-15.92-26.58-31.65-.09-.48.22-.94.7-1.03.48-.09.94.22,1.03.7,3.13,16.26,8.51,31.15,26.53,30.17,8.18-.44,11.71-6.42,15.44-12.76,1.11-1.89,2.26-3.84,3.55-5.65,5.77-8.34,10.93-9.9,20.44-6.19.41.14.84.3,1.28.46,3.25,1.18,6.61,2.39,9.87,1.61,3.11-.9,5.34-3.11,7.93-5.67,3.9-3.86,8.31-8.23,17.25-9.49.49-.06.93.27,1,.75.07.48-.27.93-.75,1-8.36,1.18-12.56,5.34-16.26,9-2.64,2.61-5.13,5.08-8.71,6.12-3.81.92-7.42-.39-10.92-1.65-.44-.16-.87-.31-1.3-.46-8.78-3.43-13.07-2.13-18.38,5.54-1.25,1.76-2.38,3.68-3.47,5.53-3.81,6.46-7.74,13.13-16.86,13.62-.6.03-1.2.05-1.78.05Z"/>
  <path class="cls-18" d="M160.08,67.37c-.22,0-.45-.08-.62-.25-.35-.34-.35-.9,0-1.25.05-.05,5.32-5.43,5.28-9.76-.01-1.16-.41-2.11-1.22-2.9-1.92-1.88-5.83-.79-9.97.36-4.67,1.29-9.97,2.76-13.78.19-2.59-1.75-4.14-5.08-4.72-10.18-2.48-21.77,5.83-31.88,6.19-32.29.31-.37.87-.42,1.24-.1.37.31.42.87.11,1.24-.08.1-8.17,10.01-5.78,30.96.52,4.56,1.81,7.48,3.95,8.92,3.14,2.12,7.81.82,12.32-.43,4.64-1.29,9.02-2.5,11.67.08,1.15,1.12,1.74,2.52,1.75,4.15.05,5.06-5.55,10.77-5.79,11.01-.17.17-.4.26-.63.26Z"/>
  <path class="cls-18" d="M131.14,45.12c-.35,0-.67-.08-.97-.28-.93-.61-.92-1.91-.83-2.83,2.03-21.02,11.03-29.68,11.41-30.03.35-.33.91-.31,1.24.04.33.35.32.91-.04,1.25-.09.08-8.9,8.62-10.86,28.92-.09.97.07,1.21.07,1.21.34.05,1.88-.79,2.9-1.36,3.01-1.69,7.55-4.24,10.49-.48.3.38.23.94-.15,1.24-.38.3-.94.23-1.24-.15-1.85-2.38-4.7-1.05-8.24.93-1.5.84-2.76,1.55-3.78,1.55Z"/>
  <path class="cls-18" d="M141.79,35.88c-1.23,0-2.02-.57-2.5-1.09-3.81-4.24.68-20.56,1.2-22.4.13-.47.62-.74,1.09-.61.47.13.74.62.61,1.09-1.35,4.76-4.27,17.76-1.59,20.74.25.28.7.63,1.64.47,1.68-.29,3.09-2.57,4.45-4.77,1.8-2.91,3.83-6.21,7.16-5.6,1.59.29,2.9.96,4.06,1.54,1.34.68,2.4,1.21,3.34.91.95-.31,1.94-1.5,3.01-3.64.22-.43.75-.61,1.18-.39.43.22.61.75.39,1.18-1.32,2.61-2.6,4.05-4.04,4.52-1.63.54-3.11-.22-4.68-1.01-1.1-.56-2.24-1.13-3.58-1.38-2.14-.39-3.69,2.12-5.34,4.79-1.56,2.54-3.18,5.16-5.65,5.58-.27.05-.52.07-.76.07Z"/>
  <path class="cls-18" d="M109.09,25.3c-8.46,0-14-4.78-19.86-9.85-2.53-2.18-5.14-4.44-8.16-6.52-7.63-5.23-12.93.81-13.15,1.07-.32.37-.87.41-1.24.1-.37-.31-.42-.87-.1-1.24.06-.08,6.53-7.53,15.49-1.38,3.1,2.13,5.75,4.42,8.32,6.63,5.85,5.05,10.9,9.42,18.7,9.42,2.69,0,7.19-2.1,11.54-4.14,7.42-3.47,15.1-7.07,18.67-3.25.33.36.31.91-.04,1.25-.36.33-.91.31-1.25-.04-2.7-2.89-10.1.58-16.64,3.64-4.73,2.21-9.2,4.31-12.29,4.31Z"/>
  <path class="cls-18" d="M166.33,47.27c-18,0-23.55-15.92-26.57-31.65-.09-.48.22-.94.7-1.03.48-.09.94.22,1.03.7,3.13,16.26,8.51,31.15,26.53,30.17,8.18-.44,11.71-6.42,15.44-12.76,1.11-1.89,2.26-3.84,3.55-5.65,5.96-8.62,12.89-10.07,21.18-4.44,13.66,9.28,20.67,2.85,28.09-3.95,4.31-3.95,8.77-8.04,14.65-9.18.47-.09.94.22,1.03.7.09.48-.22.94-.7,1.03-5.39,1.04-9.67,4.96-13.8,8.75-7.6,6.97-15.46,14.17-30.27,4.11-7.42-5.04-13.37-3.77-18.75,3.99-1.25,1.76-2.38,3.68-3.47,5.53-3.81,6.46-7.74,13.13-16.86,13.62-.61.03-1.2.05-1.78.05Z"/>
  <path class="cls-18" d="M57.77,61.23c-.31,0-.58-.08-.83-.26-1.02-.71-.64-2.37-.08-4.05,1.86-5.57,1.83-9.54-.09-11.46-2.87-2.87-9.19-.81-9.25-.79-.46.16-.96-.09-1.12-.56-.15-.46.09-.96.56-1.12.3-.1,7.42-2.43,11.06,1.21,2.46,2.46,2.63,6.92.52,13.26-.35,1.05-.45,1.62-.47,1.92,1.01-.37,3.44-2.31,5.43-3.91,3.12-2.49,7-5.59,10.42-7.16,15.73-7.22,27.4-.25,27.89.05.41.25.54.8.29,1.21-.25.42-.8.54-1.21.29-.11-.07-11.39-6.76-26.23.05-3.23,1.48-7.02,4.51-10.06,6.94-3.54,2.83-5.52,4.36-6.83,4.36Z"/>
  <g>
    <path class="cls-9" d="M66.83,7.87c.22.19.26,1.31.42,1.56,1.73,2.65-.63,2.69-2.05,3.86-.89.72-.51,2.97-1.32,3.24-.5.17-1.13-.8-.73-1.82.66-1.71,2.71-3.87,2.21-3.37-2.29,2.32-7.83,7.95-8.95,5.95-.54-.98.86-1.25,2.06-1.88.98-.51,1.78-1.48,1.78-1.48,0,0-1.89-1.77-.37-4.07.88-1.33,3.48-2.2,4.85-2.59.57-.16,1.17-.06,1.66.26.16.1.31.21.44.33Z"/>
    <path class="cls-18" d="M57.15,17.85c-.06,0-.11,0-.16-.01-.31-.04-.54-.2-.69-.48-.14-.24-.17-.47-.1-.68.15-.44.74-.7,1.42-1,.26-.12.53-.23.8-.37.78-.41,1.45-1.12,1.66-1.36-.36-.39-1.68-2.07-.3-4.15.9-1.35,3.46-2.23,4.92-2.64.6-.17,1.24-.07,1.76.27.18.12.33.23.45.34h0c.15.13.21.44.29.94.04.26.1.56.16.65.53.82.72,1.44.59,1.95-.17.64-.82.99-1.51,1.35-.4.21-.81.43-1.16.71-.41.33-.53,1.03-.64,1.71-.12.72-.24,1.39-.72,1.56-.21.07-.44,0-.64-.21-.32-.34-.54-1.04-.25-1.78.21-.54.57-1.17,1.07-1.88-2.21,2.19-5.34,5.06-6.95,5.06ZM65.27,7.34c-.17,0-.35.02-.51.07-1.42.4-3.93,1.25-4.78,2.54-1.45,2.18.27,3.84.35,3.91l.09.08-.07.09s-.82.99-1.81,1.51c-.27.14-.54.26-.81.38-.6.26-1.17.51-1.28.85-.05.14-.02.29.08.48.11.2.28.32.51.35,1.77.23,6.28-4.34,8.21-6.3l.03-.03c.08-.09.16-.16.25-.08.09.08.04.14-.09.3-1.11,1.33-1.83,2.43-2.16,3.27-.24.61-.08,1.23.2,1.51.12.13.26.18.37.14.34-.12.44-.72.55-1.36.12-.69.25-1.47.73-1.86.37-.3.79-.53,1.2-.74.67-.35,1.25-.66,1.38-1.2.11-.43-.07-1.01-.56-1.75-.09-.14-.14-.42-.19-.75-.05-.28-.12-.71-.21-.79-.11-.1-.25-.2-.43-.32-.31-.21-.68-.31-1.04-.31Z"/>
  </g>
  <g>
    <path class="cls-9" d="M117.55,11.21c-1.09.88-2.73.41-3.13-.93,0-.02-.01-.04-.02-.06-.56-1.95-3.85-2.52-5.42-2.61-2.84-.17-2.49-1.64-1.09-2.21s4.41-.16,4.92,1.5,1.86.77,3.26-.61c1.4-1.37,4.23-6.86,6.22-6.09,2.54.97-2.43,4.66-3.25,5.22-.1.07-.04.22.08.2,1.68-.27,6.56-.83,6.17,1.95-.29,2.04-4.06,1.4-5.91,2.43-.82.45-1.42.88-1.84,1.22Z"/>
    <path class="cls-18" d="M116.29,11.79c-.21,0-.42-.03-.62-.09-.67-.21-1.17-.71-1.37-1.38l-.02-.07c-.62-2.18-4.83-2.49-5.3-2.52-1.82-.11-2.2-.72-2.25-1.08-.09-.51.37-1.06,1.13-1.37,1-.41,2.64-.31,3.76.21.69.33,1.15.8,1.33,1.37.14.46.35.72.63.79.67.18,1.71-.75,2.43-1.45.4-.39.92-1.13,1.53-1.99,1.48-2.1,3.32-4.71,4.83-4.13.48.18.74.47.79.86.19,1.67-3.97,4.54-4.01,4.57,1.34-.24,4.63-.62,5.85.57.39.38.54.88.45,1.5-.19,1.36-1.81,1.61-3.38,1.85-.94.14-1.91.29-2.59.67-.7.39-1.32.79-1.82,1.21h0c-.38.31-.86.48-1.34.48ZM109.35,5.28c-.52,0-1.02.08-1.41.24-.64.26-1.04.71-.98,1.1.08.47.83.8,2.02.87.5.03,4.86.35,5.53,2.7l.02.06c.18.59.62,1.03,1.21,1.21.6.18,1.24.05,1.73-.34h0c.52-.42,1.14-.83,1.86-1.23.72-.4,1.71-.55,2.67-.7,1.55-.24,3.01-.46,3.17-1.64.08-.54-.05-.96-.38-1.28-1.14-1.12-4.32-.74-5.64-.53-.11.02-.22-.04-.26-.15-.04-.1,0-.22.09-.28.86-.58,4.05-3.03,3.9-4.34-.03-.29-.24-.51-.63-.66-1.31-.5-3.18,2.12-4.53,4.04-.61.87-1.14,1.61-1.56,2.02-1.23,1.2-2.05,1.66-2.67,1.51-.37-.09-.64-.42-.81-.96-.19-.63-.76-1.01-1.19-1.21-.62-.29-1.41-.45-2.14-.45Z"/>
  </g>
  <g>
    <path class="cls-9" d="M158.58,26.36c-.02-2.6,1.91-2.63,2.18-6.52.06-.83-1.8-5.17.2-5.09s3,4.1.65,6.63c-.92.99,6.24-.8,8.54-1.58,3.17-1.08,5.31,1.49-2.56,3.17,0,0,1.12,4.43-1.71,4.84-2.49.36-7.27,2.83-7.31-1.45Z"/>
    <path class="cls-18" d="M160.87,28.97c-.61,0-1.15-.12-1.57-.44-.56-.42-.83-1.13-.84-2.17h0c-.01-1.25.41-1.91.9-2.68.54-.84,1.14-1.8,1.29-3.85.01-.21-.11-.69-.26-1.25-.34-1.31-.76-2.95-.2-3.64.18-.22.44-.33.79-.32.76.03,1.42.59,1.81,1.52.57,1.39.48,3.65-1.07,5.32-.02.02-.03.04-.04.05.53.29,6.04-1.01,8.45-1.83,1.15-.39,2.3-.34,2.8.13.2.19.27.44.2.7-.26.94-2.22,1.87-5.37,2.56.12.54.51,2.68-.34,3.95-.34.51-.85.82-1.5.92-.52.08-1.16.25-1.83.43-1.07.29-2.22.6-3.21.6ZM160.91,14.87c-.24,0-.42.07-.54.22-.48.6-.04,2.3.25,3.42.16.61.28,1.09.26,1.33-.15,2.11-.77,3.1-1.32,3.96-.46.73-.87,1.37-.86,2.54h0c0,.95.25,1.6.74,1.97,1,.76,2.9.25,4.56-.21.68-.18,1.32-.36,1.86-.44.58-.08,1.03-.35,1.33-.81.9-1.34.28-3.86.27-3.88l-.03-.12.13-.03c3.63-.78,5.12-1.75,5.3-2.41.05-.17,0-.32-.13-.45-.36-.34-1.36-.48-2.55-.07-1.32.45-8.32,2.4-8.75,1.72-.05-.07-.07-.19.08-.35,1.48-1.59,1.56-3.74,1.02-5.05-.35-.84-.93-1.34-1.59-1.37-.02,0-.03,0-.05,0Z"/>
  </g>
  <g>
    <path class="cls-9" d="M249.38,9.74c1.1-2.36,2.85-1.55,4.77-4.95.41-.73.6-5.44,2.38-4.51s.94,5-2.26,6.27c-1.25.5,5.98,1.97,8.39,2.25,3.32.39,4.15,3.63-3.68,1.76,0,0-.9,4.49-3.63,3.63-2.4-.75-7.78-.58-5.97-4.46Z"/>
    <path class="cls-18" d="M256.02,14.43c-.23,0-.46-.04-.71-.11-.51-.16-1.15-.28-1.84-.4-1.76-.32-3.75-.68-4.38-1.91-.32-.62-.26-1.38.17-2.32h0c.53-1.13,1.19-1.55,1.96-2.03.85-.53,1.81-1.14,2.82-2.92.1-.18.2-.67.31-1.24.26-1.33.58-2.99,1.38-3.37.26-.12.55-.1.85.06.67.36,1.03,1.14.98,2.15-.08,1.5-1.13,3.5-3.25,4.34-.03.01-.04.02-.06.03.35.48,5.88,1.68,8.41,1.98,1.21.14,2.23.68,2.47,1.32.1.26.06.51-.12.72-.64.74-2.81.73-5.95,0-.13.54-.69,2.64-2.01,3.42-.33.19-.68.29-1.05.29ZM249.38,9.74l.11.05c-.4.87-.46,1.55-.18,2.1.58,1.12,2.51,1.47,4.21,1.78.69.13,1.35.24,1.87.41.56.18,1.08.12,1.55-.16,1.39-.83,1.91-3.36,1.92-3.38l.03-.13.13.03c3.61.86,5.38.62,5.82.11.12-.13.14-.29.08-.46-.18-.47-1.02-1.01-2.27-1.16-1.38-.16-8.54-1.42-8.64-2.21-.01-.08.02-.2.22-.28,2.02-.8,3.02-2.7,3.1-4.12.05-.91-.26-1.61-.84-1.92-.23-.12-.44-.14-.63-.05-.69.33-1.01,1.99-1.25,3.2-.12.62-.21,1.1-.34,1.32-1.04,1.84-2.03,2.46-2.9,3.01-.74.46-1.37.86-1.87,1.93l-.11-.05Z"/>
  </g>
  <g>
    <path class="cls-1" d="M79.53,58.28c.02-.17-.22-.45-.53-.87-.24-.33-.51-.76-.69-1.22-.47-1-.17-2.73,1.19-2.55.75.13,1.16.8,1.67,1.05.17.04.25-.11.33-.26.18-.35.37-.78.65-1.12.72-1.01,2.42-1.01,2.88.22.44.96-.53,2.43-.96,2.92-.25.32.07.24.34.21,1.39-.23,3.89-.08,4.1,1.68.06.8-.57,1.67-1.67,1.96-.96.3-2.09.03-3.02-.14-.61-.08-.59.23-.51.91.09.66.25,1.73-.1,2.33-.48.92-1.49.32-1.83-.39-.3-.47-.43-1.35-.57-1.5-.25-.3-1.03.63-1.38.81-1.34,1.09-3.68,1.34-4.61-.37-1.09-2.3,2.51-3.13,3.98-3.34.26-.07.64-.07.73-.33h0Z"/>
    <path class="cls-18" d="M82.53,64h-.02c-.53,0-1.04-.48-1.25-.93-.17-.26-.29-.67-.38-1-.06-.19-.12-.42-.16-.47l-.03-.02c-.14,0-.5.29-.73.5-.18.16-.34.29-.46.36-.85.69-2.06,1.02-3.07.82-.76-.15-1.35-.58-1.71-1.24-.28-.59-.29-1.12-.03-1.6.69-1.29,3.1-1.77,4.1-1.92.05-.02.12-.03.2-.04.22-.04.38-.08.42-.19,0-.1-.17-.32-.35-.56l-.16-.22c-.32-.44-.56-.86-.7-1.25-.33-.71-.28-1.67.12-2.23.2-.27.56-.57,1.2-.49.5.09.86.39,1.17.66.18.16.36.31.54.39.03.02.07-.03.16-.19.04-.08.08-.16.12-.23.15-.3.32-.64.55-.92.39-.55,1.1-.85,1.79-.76.61.08,1.09.45,1.3,1.02.47,1.03-.55,2.55-.98,3.05-.01.01-.02.03-.03.04.05,0,.12-.01.16-.02h.1c1.05-.18,2.6-.14,3.52.55.42.31.66.73.72,1.24.07.93-.67,1.81-1.77,2.1-.89.27-1.9.08-2.79-.09l-.29-.05c-.18-.02-.29,0-.34.04-.1.09-.06.4-.02.73v.03c.1.69.25,1.75-.11,2.38-.23.44-.55.53-.79.53ZM80.68,61.34s.02,0,.03,0c.08,0,.15.04.2.1.07.08.12.25.22.56.09.31.21.7.36.95.21.45.67.79,1.04.8h.01c.24,0,.43-.14.57-.4.33-.56.18-1.6.09-2.22v-.03c-.05-.43-.09-.76.09-.94.15-.15.39-.13.56-.11l.3.06c.86.16,1.84.35,2.67.09,1.12-.29,1.64-1.14,1.59-1.83-.05-.43-.26-.79-.62-1.06-.8-.6-2.25-.69-3.33-.51h-.1c-.2.04-.38.06-.46-.07-.07-.13.04-.28.09-.34.38-.44,1.36-1.88.95-2.79-.18-.49-.59-.8-1.11-.87-.61-.09-1.22.18-1.56.67-.22.26-.38.59-.52.88-.04.08-.08.16-.11.23-.09.16-.21.38-.47.32-.23-.11-.42-.27-.62-.44-.3-.26-.62-.53-1.05-.61-.41-.05-.73.08-.96.39-.35.48-.39,1.36-.1,1.98.15.38.37.78.68,1.2l.16.21c.26.35.41.55.4.74v.02c-.1.29-.39.35-.62.39-.07.01-.13.02-.19.04-.77.12-3.28.57-3.94,1.8-.22.4-.21.87.03,1.37.32.59.85.97,1.54,1.11.94.18,2.07-.12,2.88-.78.12-.07.27-.2.44-.34.32-.27.64-.56.89-.56Z"/>
  </g>
  <g>
    <path class="cls-1" d="M73.29,23.43c.02-.17-.22-.45-.53-.87-.24-.33-.51-.76-.69-1.22-.47-1-.17-2.73,1.19-2.55.68.12,1.57.39,1.97,2.89.02.11.17.11.18,0,.11-1.12-.07-2.29.51-3.22.66-1.05,2.42-1.01,2.88.22.44.96-.53,2.43-.96,2.92-.25.32.07.24.34.21,1.39-.23,3.89-.08,4.1,1.68.06.8-.57,1.67-1.67,1.96-.96.3-2.09.03-3.02-.14-.61-.08-.59.23-.51.91.09.66.25,1.73-.1,2.33-.48.92-1.49.32-1.83-.39-.3-.47-.43-1.35-.57-1.5-.25-.3-1.03.63-1.38.81-1.34,1.09-3.68,1.34-4.61-.37-1.09-2.3,2.51-3.13,3.98-3.34.26-.07.64-.07.73-.33h0Z"/>
    <path class="cls-18" d="M76.29,29.15h-.02c-.53,0-1.04-.48-1.25-.93-.17-.26-.29-.67-.38-1-.06-.19-.12-.42-.16-.47l-.03-.02h0c-.15,0-.5.3-.73.5-.18.16-.34.29-.46.36-.85.69-2.06,1.02-3.07.82-.76-.15-1.35-.58-1.71-1.24-.28-.59-.29-1.12-.03-1.6.69-1.29,3.1-1.77,4.1-1.92.05-.02.12-.03.2-.04.22-.04.37-.08.42-.19,0-.1-.17-.32-.35-.57l-.16-.22c-.32-.44-.56-.86-.7-1.25-.33-.71-.28-1.67.12-2.23.2-.27.56-.57,1.2-.49.77.14,1.61.47,2.03,2.72.01-.21.02-.42.02-.63.02-.81.04-1.66.48-2.36.35-.55,1.02-.86,1.71-.8.65.07,1.17.46,1.4,1.04.47,1.03-.55,2.55-.98,3.05-.01.01-.02.03-.03.04.05,0,.12-.01.16-.02h.1c1.05-.18,2.6-.14,3.52.55.42.31.66.73.72,1.24.07.93-.67,1.81-1.77,2.1-.89.27-1.89.08-2.79-.09l-.29-.05c-.17-.02-.29,0-.34.04-.1.09-.06.4-.02.73v.04c.1.69.25,1.74-.11,2.37-.23.44-.55.53-.79.53ZM74.44,26.48s.02,0,.03,0c.08,0,.15.04.2.1.07.08.12.25.22.56.09.31.21.7.36.95.22.45.67.79,1.04.8h.01c.24,0,.43-.14.57-.4.33-.56.18-1.6.09-2.22v-.04c-.05-.43-.09-.76.09-.94.15-.15.39-.13.56-.11l.3.06c.86.16,1.84.35,2.67.09,1.12-.29,1.64-1.14,1.59-1.83-.05-.43-.26-.79-.62-1.06-.8-.6-2.25-.69-3.33-.51h-.1c-.21.04-.38.06-.46-.07-.07-.13.04-.28.09-.34.38-.44,1.37-1.88.95-2.79-.19-.5-.63-.83-1.19-.89-.6-.05-1.18.21-1.47.68-.4.64-.42,1.42-.44,2.23,0,.31-.02.62-.04.93-.01.11-.1.19-.21.19-.12,0-.2-.08-.22-.18-.4-2.53-1.32-2.69-1.87-2.79-.41-.05-.73.08-.96.39-.35.48-.39,1.36-.1,1.98.14.38.37.78.68,1.2l.16.21c.26.35.41.55.4.74v.04c-.1.26-.39.32-.62.36-.07.01-.13.03-.19.04-.77.12-3.28.57-3.94,1.8-.22.4-.21.87.03,1.37.32.59.85.97,1.54,1.11.94.18,2.07-.12,2.88-.78.12-.07.27-.2.44-.34.32-.27.64-.56.89-.56Z"/>
  </g>
  <g>
    <path class="cls-9" d="M101.47,49.8c-2.93-3.58,7.47-10.02,7.24-6.99-.17,2.28-6.51,2.79-3.59,4.38s9.54-1.31,7.31-2.51-5.08-1.94-2.9-2.53,5.65,1.3,6,2.78c.47,1.99-1.09,2.86-2.52,3.24-.56.15,1.14,1.3.13,3.11-1.43,2.57-8.69,3.34-11.67-1.47Z"/>
    <path class="cls-18" d="M108.21,53.53c-2.94,0-5.51-1.33-6.92-3.6-.86-1.06-.74-2.43.35-3.96,1.65-2.33,5.37-4.59,6.75-4.09.13.04.3.14.42.33.18-.12.43-.2.66-.27,1.43-.39,3.19.22,4.37.91,1.05.62,1.74,1.36,1.9,2.03.4,1.67-.53,2.91-2.61,3.48.03.07.08.17.12.25.27.53.78,1.52.08,2.77-.69,1.23-2.65,2.09-4.89,2.15-.07,0-.15,0-.22,0ZM107.91,42.24c-1.35,0-4.44,1.89-5.92,3.98-.67.95-1.28,2.32-.35,3.44l.02.02c1.36,2.2,3.89,3.46,6.77,3.41,2.09-.05,3.91-.82,4.52-1.92.58-1.05.18-1.84-.09-2.36-.14-.27-.24-.47-.16-.66.03-.07.1-.16.25-.2,1.92-.51,2.71-1.51,2.36-2.98-.13-.53-.78-1.21-1.7-1.75-1.38-.82-2.97-1.17-4.03-.87-.56.15-.62.28-.62.28.04.2,1.05.66,1.78.99.56.25,1.2.54,1.79.86.46.25.56.55.57.76.01.43-.37.9-1.1,1.35-1.62.99-5.04,1.84-6.98.79-.61-.33-.89-.65-.88-1,.01-.58.81-.97,1.83-1.46,1.16-.56,2.46-1.2,2.53-2.12.03-.36-.12-.46-.26-.51-.09-.03-.2-.05-.32-.05ZM108.87,43.16c-.3.98-1.58,1.6-2.72,2.16-.74.36-1.57.77-1.58,1.08,0,.09.08.3.66.61,1.81.98,5.02.17,6.55-.77.56-.35.9-.71.89-.97,0-.14-.12-.27-.34-.39-.58-.31-1.2-.59-1.76-.85-.81-.36-1.37-.63-1.7-.87Z"/>
  </g>
  <g>
    <path class="cls-15" d="M66.64,27.31c.83-.02,1.37.88.94,1.6-1.3,2.19-4,5.9-6.43,4.08s1.02-5.56,5.48-5.68Z"/>
    <path class="cls-18" d="M62.53,33.6c-.51,0-1-.17-1.45-.51-.74-.55-1-1.34-.72-2.22.54-1.71,3.09-3.6,6.27-3.68h0c.44,0,.83.21,1.06.59.22.38.22.83,0,1.2-1.12,1.89-2.85,4.22-4.68,4.58-.16.03-.32.05-.48.05ZM66.64,27.43h0c-3.07.08-5.53,1.89-6.04,3.51-.17.55-.2,1.33.63,1.95.53.4,1.11.54,1.73.42,1.83-.36,3.62-2.95,4.52-4.46.18-.29.18-.65,0-.95-.18-.3-.49-.46-.83-.46Z"/>
  </g>
  <g>
    <path class="cls-15" d="M76.09,57.49s-6.72,4.08-8.11.56c-1.51-3.81,11.12-3.62,8.11-.56Z"/>
    <path class="cls-18" d="M70.37,59.61c-.39,0-.76-.05-1.1-.16-.66-.22-1.13-.68-1.4-1.35-.35-.89-.02-1.65.96-2.2,2.11-1.2,6.69-1.09,7.67.18.23.3.37.81-.31,1.5l-.02.02c-.16.09-3.34,2.01-5.79,2.01ZM72.85,55.31c-1.43,0-2.95.26-3.9.8-.87.49-1.15,1.13-.85,1.89.24.6.65,1,1.24,1.2,2.27.76,6.4-1.66,6.67-1.81.44-.45.53-.84.28-1.16-.47-.61-1.9-.92-3.45-.92Z"/>
  </g>
  <g>
    <path class="cls-17" d="M73.71,16.45s-2.48-4.3-.24-5.13c2.43-.9,2.12,7.08.24,5.13Z"/>
    <path class="cls-18" d="M74.27,16.88c-.18,0-.4-.08-.65-.34l-.02-.02c-.07-.12-1.63-2.87-1.07-4.42.16-.43.46-.73.9-.89.58-.21,1.09.02,1.43.66.73,1.37.59,4.3-.24,4.9-.08.06-.2.12-.35.12ZM73.81,16.37c.39.39.59.24.67.19.67-.49.88-3.26.17-4.58-.28-.53-.66-.71-1.13-.54-.37.14-.62.38-.75.74-.51,1.39.92,3.99,1.04,4.2Z"/>
  </g>
  <g>
    <rect class="cls-15" x="87.09" y="53.26" width="2.87" height="2.87" rx="1.43" ry="1.43" transform="translate(189.8 30.78) rotate(135)"/>
    <path class="cls-18" d="M88.52,56.25c-.4,0-.8-.15-1.1-.46-.61-.61-.61-1.6,0-2.2h0c.61-.61,1.6-.61,2.2,0s.61,1.6,0,2.2c-.3.3-.7.46-1.1.46ZM87.6,53.77c-.51.51-.51,1.34,0,1.85.51.51,1.34.51,1.85,0,.51-.51.51-1.34,0-1.85-.51-.51-1.34-.51-1.85,0h0Z"/>
  </g>
  <g>
    <g>
      <path class="cls-1" d="M323.9,55.72c.02-.17-.22-.45-.53-.87-.24-.33-.51-.76-.69-1.22-.47-1-.17-2.73,1.19-2.55.75.13,1.16.8,1.67,1.05.17.04.25-.11.33-.26.18-.35.37-.78.65-1.12.72-1.01,2.42-1.01,2.88.22.44.96-.53,2.43-.96,2.92-.25.32.07.24.34.21,1.39-.23,3.89-.08,4.1,1.68.06.8-.57,1.67-1.67,1.96-.96.3-2.09.03-3.02-.14-.61-.08-.59.23-.51.91.09.66.25,1.73-.1,2.33-.48.92-1.49.32-1.83-.39-.3-.47-.43-1.35-.57-1.5-.25-.3-1.03.63-1.38.81-1.34,1.09-3.68,1.34-4.61-.37-1.09-2.3,2.51-3.13,3.98-3.34.26-.07.64-.07.73-.33h0Z"/>
      <path class="cls-18" d="M326.9,61.44h-.01c-.53,0-1.04-.48-1.25-.93-.17-.26-.29-.67-.38-1-.06-.19-.12-.42-.16-.47l-.03-.02c-.16,0-.5.29-.73.5-.18.16-.34.29-.46.36-.85.69-2.06,1.02-3.07.82-.76-.15-1.35-.58-1.71-1.24-.28-.59-.29-1.12-.03-1.6.69-1.29,3.1-1.77,4.1-1.92.05-.02.13-.03.2-.04.22-.04.37-.08.42-.19,0-.09-.17-.32-.35-.57l-.16-.22c-.32-.43-.55-.86-.7-1.25-.33-.71-.28-1.67.12-2.23.2-.27.57-.57,1.2-.49.5.09.86.39,1.17.66.18.16.36.31.54.39,0,0,0,0,0,0,.03,0,.07-.04.16-.19.04-.08.08-.16.12-.23.15-.3.32-.64.55-.92.39-.55,1.1-.85,1.79-.76.61.08,1.09.45,1.3,1.02.47,1.03-.55,2.55-.98,3.05,0,.01-.02.03-.03.04.05,0,.12-.01.16-.02h.1c1.05-.19,2.6-.14,3.52.55.42.31.66.73.72,1.24.07.93-.67,1.81-1.77,2.1-.88.27-1.89.08-2.79-.09l-.29-.05c-.17-.02-.29,0-.34.04-.1.09-.06.4-.02.73v.04c.1.69.25,1.74-.11,2.37-.23.44-.55.53-.79.53ZM325.05,58.78s.02,0,.03,0c.08,0,.15.04.2.1.07.08.12.25.22.56.09.31.21.7.36.95.22.45.67.79,1.04.8h.01c.24,0,.43-.13.57-.4.32-.56.18-1.6.09-2.21v-.04c-.05-.43-.09-.76.09-.94.15-.14.39-.13.56-.11l.3.06c.86.16,1.84.35,2.67.09,1.12-.29,1.64-1.14,1.59-1.83-.05-.43-.26-.79-.62-1.06-.8-.6-2.25-.69-3.33-.51h-.1c-.21.04-.38.06-.46-.07-.07-.13.04-.28.09-.34.38-.44,1.36-1.88.95-2.79-.18-.48-.59-.8-1.11-.87-.6-.08-1.22.18-1.56.67-.22.26-.38.58-.52.87-.04.08-.08.16-.12.23-.09.16-.21.38-.47.32-.24-.11-.42-.27-.62-.44-.3-.26-.62-.53-1.04-.61-.4-.05-.73.08-.96.39-.35.48-.39,1.36-.09,1.98.14.38.37.78.67,1.2l.16.21c.26.34.41.55.4.74v.04c-.1.26-.39.32-.62.36-.07.01-.13.03-.19.04-.77.12-3.28.57-3.94,1.8-.22.4-.2.87.04,1.37.32.59.85.97,1.54,1.11.94.19,2.07-.12,2.88-.78.12-.07.27-.2.44-.34.32-.27.64-.56.89-.56ZM328.48,54.07h0Z"/>
    </g>
    <g>
      <path class="cls-15" d="M320.66,52.98s-6.72,4.08-8.11.56c-1.51-3.81,11.12-3.62,8.11-.56Z"/>
      <path class="cls-18" d="M314.93,55.09c-.39,0-.76-.05-1.1-.16-.66-.22-1.13-.68-1.4-1.35-.35-.89-.02-1.65.96-2.2,2.11-1.2,6.69-1.08,7.67.18.23.3.37.81-.31,1.5l-.02.02c-.16.09-3.34,2.01-5.79,2.01ZM317.41,50.8c-1.43,0-2.95.26-3.9.8-.87.49-1.15,1.13-.85,1.89.24.6.66,1,1.24,1.2,2.27.76,6.4-1.66,6.67-1.81.44-.45.53-.84.28-1.16-.47-.61-1.9-.92-3.45-.92Z"/>
    </g>
    <g>
      <rect class="cls-15" x="330.85" y="49.37" width="2.87" height="2.87" rx="1.43" ry="1.43" transform="translate(603.17 -148.24) rotate(135)"/>
      <path class="cls-18" d="M332.29,52.35c-.4,0-.8-.15-1.1-.46-.29-.29-.46-.69-.46-1.1s.16-.81.46-1.1c.61-.61,1.6-.6,2.2,0,.29.29.46.69.46,1.1s-.16.81-.46,1.1c-.3.3-.7.46-1.1.46ZM332.29,49.49c-.33,0-.67.13-.92.38h0c-.25.25-.38.57-.38.92s.14.68.38.92c.51.51,1.34.51,1.85,0,.25-.25.38-.58.38-.92s-.14-.68-.38-.92-.59-.38-.93-.38Z"/>
    </g>
  </g>
  <g>
    <g>
      <path class="cls-5" d="M215.71,65.75c-.02-.17.22-.45.53-.87.24-.33.51-.76.69-1.22.47-1,.17-2.73-1.19-2.55-.75.13-1.16.8-1.67,1.05-.17.04-.25-.11-.33-.26-.18-.35-.37-.78-.65-1.12-.72-1.01-2.42-1.01-2.88.22-.44.96.53,2.43.96,2.92.25.32-.07.24-.34.21-1.39-.23-3.89-.08-4.1,1.68-.06.8.57,1.67,1.67,1.96.96.3,2.09.03,3.02-.14.61-.08.59.23.51.91-.09.66-.25,1.73.1,2.33.48.92,1.49.32,1.83-.39.3-.47.43-1.35.57-1.5.25-.3,1.03.63,1.38.81,1.34,1.09,3.68,1.34,4.61-.37,1.09-2.3-2.51-3.13-3.98-3.34-.26-.07-.64-.07-.73-.33h0Z"/>
      <path class="cls-18" d="M212.71,71.47c-.24,0-.56-.09-.79-.54-.36-.63-.21-1.68-.11-2.37v-.03c.04-.33.08-.63-.02-.73-.05-.05-.17-.07-.35-.04l-.28.05c-.89.17-1.9.36-2.79.08-1.09-.29-1.84-1.16-1.76-2.09.06-.51.3-.93.72-1.24.91-.69,2.47-.73,3.52-.56h.09s.11.02.16.03c0-.01-.02-.03-.03-.04-.43-.49-1.45-2.01-.98-3.05.21-.56.69-.93,1.3-1.01.69-.09,1.4.21,1.8.77.23.27.4.61.54.91.04.08.08.15.11.22.1.17.14.21.19.19.15-.08.33-.23.51-.38.31-.27.67-.58,1.17-.66.64-.09,1.01.22,1.2.49.41.56.46,1.52.12,2.24-.14.38-.38.8-.7,1.24l-.16.22c-.18.24-.35.47-.35.57h0c.04.1.19.14.42.18.08.01.15.03.22.05.99.15,3.4.63,4.09,1.92.26.48.25,1.02-.03,1.6-.36.67-.96,1.1-1.71,1.25-1.01.2-2.22-.13-3.09-.83-.1-.05-.26-.19-.44-.35-.23-.2-.57-.5-.73-.5h-.01s-.03.02-.03.02c-.04.04-.11.28-.16.47-.1.33-.21.74-.39,1.02-.2.43-.72.9-1.24.91h-.02ZM211.58,67.5c.14,0,.28.03.38.12.18.18.14.51.1.94v.04c-.09.62-.24,1.66.08,2.22.15.28.33.4.58.41.37,0,.82-.35,1.03-.78.17-.26.28-.65.37-.96.09-.32.14-.48.22-.57.05-.06.11-.09.19-.1.25-.04.59.27.92.56.16.14.32.28.42.33.83.67,1.96.98,2.9.8.68-.13,1.21-.52,1.54-1.11.24-.5.25-.96.03-1.37-.65-1.22-3.17-1.68-3.92-1.79-.08-.02-.14-.03-.21-.05-.23-.04-.53-.1-.62-.36v-.04c-.02-.19.13-.4.39-.74l.16-.21c.31-.42.53-.82.67-1.19.3-.64.26-1.51-.09-1.99-.23-.31-.55-.44-.96-.39-.42.07-.74.34-1.04.6-.2.17-.39.33-.59.43-.28.07-.4-.15-.49-.29-.05-.09-.09-.17-.13-.25-.14-.29-.3-.61-.52-.87-.35-.49-.97-.75-1.57-.67-.52.07-.92.38-1.1.86-.42.92.56,2.36.94,2.79.05.07.17.22.1.35-.07.13-.25.11-.45.08h-.09c-1.1-.19-2.54-.1-3.34.5-.36.27-.57.63-.62,1.06-.05.68.47,1.53,1.58,1.82.84.26,1.81.07,2.68-.09l.29-.05c.06,0,.12-.01.19-.01Z"/>
    </g>
    <g>
      <path class="cls-15" d="M216.43,59.49s5.48-5.63,2.37-7.77c-3.38-2.32-6.02,10.02-2.37,7.77Z"/>
      <path class="cls-18" d="M215.64,59.89c-.32,0-.53-.15-.67-.33-1.02-1.23-.09-5.72,1.54-7.51.76-.83,1.58-.98,2.36-.44.59.41.93.97,1,1.66.25,2.57-3.2,6.15-3.35,6.3l-.02.02c-.35.21-.63.29-.86.29ZM217.94,51.55c-.42,0-.83.22-1.24.67-1.54,1.68-2.47,6.05-1.54,7.18.26.32.66.31,1.19-.01.21-.22,3.5-3.7,3.27-6.09-.06-.62-.36-1.12-.89-1.48-.26-.18-.53-.27-.79-.27Z"/>
    </g>
    <g>
      <rect class="cls-15" x="205.28" y="60.73" width="2.87" height="2.87" rx="1.43" ry="1.43" transform="translate(104.5 -127.96) rotate(45)"/>
      <path class="cls-18" d="M206.72,63.72c-.4,0-.8-.15-1.1-.46-.61-.61-.61-1.6,0-2.2s1.6-.61,2.2,0,.61,1.6,0,2.2c-.3.3-.7.46-1.1.46ZM206.72,60.86c-.33,0-.67.13-.92.38-.51.51-.51,1.34,0,1.85.51.51,1.34.51,1.85,0,.51-.51.51-1.34,0-1.85-.25-.26-.59-.38-.92-.38Z"/>
    </g>
  </g>
  <path class="cls-18" d="M138.58,51.38c-.09,0-.19-.02-.28-.05-.46-.16-.71-.66-.55-1.12.11-.32,2.72-7.85,7.88-8.12,1.31-.07,2.41.35,3.21,1.21,1.95,2.13,1.4,6.32,1.37,6.5-.07.48-.51.81-.99.75-.48-.07-.82-.51-.75-.99.13-.98.23-3.81-.93-5.07-.44-.47-1.03-.68-1.81-.65-3.3.17-5.67,5.06-6.3,6.93-.12.37-.47.6-.83.6Z"/>
  <g>
    <path class="cls-9" d="M142.01,40.14c1.32-1.34,8.94,2.85,7.48,5.58-.35.66-1.48.1-1.48.1,0,0,.24,1.11-1.02,1.92-.92.59-3.35.45-3.97-.6-3.66-6.22-1.01-7-1.01-7Z"/>
    <path class="cls-18" d="M145.45,48.21c-.36,0-.74-.04-1.09-.13-.49-.12-1.13-.36-1.44-.88-2.11-3.59-2.13-5.4-1.78-6.29.25-.63.69-.83.81-.88.83-.79,3.56.24,5.5,1.67,1.98,1.46,2.77,2.94,2.16,4.08-.31.58-1.08.38-1.45.24,0,.39-.11,1.19-1.1,1.82-.37.24-.97.37-1.62.37ZM142.05,40.26h0s-.45.14-.69.76c-.33.84-.28,2.57,1.77,6.06.2.35.66.62,1.28.77.91.22,1.99.13,2.51-.21,1.16-.75.98-1.74.97-1.79l-.05-.25.23.11s1.02.5,1.31-.04c.54-1-.24-2.41-2.08-3.76-2.04-1.5-4.57-2.31-5.2-1.67l-.05.03Z"/>
  </g>
  <path class="cls-18" d="M109.67,69.23c-10.16,0-18.01-5.4-18.11-5.48-.4-.28-.49-.83-.21-1.23.28-.4.83-.49,1.23-.22.14.1,14.44,9.91,28.98,2.22,6.02-3.18,10.12-7.67,12.19-13.34,1.55-4.24,1.32-7.6,1.31-7.63-.04-.49.33-.91.81-.95.48-.03.91.32.95.81.01.14.96,14.53-14.43,22.67-4.37,2.31-8.72,3.14-12.71,3.14Z"/>
  <g>
    <path class="cls-9" d="M161.65,65.29c-.19-1.86-3.22-.01-3.99,1.87-.61,1.49,1.36,4.16,7.42,4.16s6.52-2.23,4.69-2.65c-.92-.21-3.61-.06-5.65-.29-2.78-.32-2.43-2.68-2.48-3.09Z"/>
    <path class="cls-18" d="M165.08,71.45c-5.02,0-6.74-1.75-7.25-2.51-.41-.61-.52-1.28-.29-1.83.58-1.42,2.45-2.85,3.5-2.71.42.06.68.37.73.87h0s0,.12,0,.22c0,.68,0,2.5,2.36,2.77,1.02.12,2.2.14,3.25.15,1.04.02,1.95.03,2.42.14.68.16,1.09.57,1.03,1.05-.1.85-1.66,1.85-5.76,1.85ZM160.88,64.64c-.9,0-2.55,1.21-3.11,2.57-.19.47-.09,1.05.27,1.59,1.01,1.5,3.64,2.4,7.04,2.4,4.21,0,5.44-1.07,5.51-1.63.04-.34-.29-.65-.84-.77-.44-.1-1.33-.12-2.36-.13-1.05-.02-2.24-.04-3.27-.16-2.58-.3-2.58-2.34-2.58-3.01,0-.08,0-.15,0-.19-.04-.39-.21-.61-.52-.65-.04,0-.08,0-.12,0Z"/>
  </g>
  <g>
    <path class="cls-9" d="M93.32,63.95c1.84.33.89-3.09-.71-4.35-1.27-1-4.38.17-6.04,6s.36,6.88,1.26,5.24c.45-.83,1.05-3.46,1.83-5.35,1.07-2.59,3.24-1.61,3.65-1.53Z"/>
    <path class="cls-18" d="M86.94,71.66c-.09,0-.19-.02-.28-.06-.79-.33-1.33-2.11-.2-6.04,1.38-4.83,3.53-6,4.4-6.28.7-.23,1.37-.15,1.84.22,1.21.95,2.08,3.14,1.65,4.11-.17.39-.54.55-1.04.46h0s-.12-.03-.21-.05c-.66-.19-2.4-.69-3.31,1.51-.39.95-.73,2.08-1.04,3.08s-.56,1.86-.8,2.29c-.27.49-.64.76-1.01.76ZM91.62,59.4c-.22,0-.45.04-.69.12-1.72.56-3.3,2.84-4.24,6.11-1.15,4.05-.47,5.53.06,5.74.32.13.7-.1.97-.6.22-.4.48-1.25.78-2.24.3-1.01.65-2.14,1.04-3.1.99-2.4,2.96-1.84,3.61-1.66.08.02.14.04.18.05.39.07.64-.04.77-.32.36-.79-.37-2.86-1.57-3.81-.25-.19-.56-.29-.91-.29Z"/>
  </g>
  <path class="cls-18" d="M282.64,67.12c-.36,0-.7-.22-.83-.58-.61-1.66-5.79-16.32.14-19.64,6.25-3.5,11,1.98,15.18,6.82,1.48,1.71,2.87,3.32,4.24,4.46,1.27,1.05,2.74,2.1,4.03,1.84,1.08-.21,3.3-2.13,4.81-7.96,5.89-22.65-9.18-38.83-9.34-38.99-.34-.35-.32-.91.03-1.25.35-.33.91-.32,1.25.03.16.17,15.9,17.06,9.77,40.65-2.04,7.85-5.25,9.06-6.18,9.24-2.01.39-3.83-.83-5.5-2.21-1.49-1.23-2.93-2.9-4.46-4.67-3.92-4.54-7.98-9.24-12.98-6.44-3.92,2.2-.86,13.37.65,17.49.17.46-.07.96-.52,1.13-.1.04-.2.05-.3.05Z"/>
  <path class="cls-18" d="M287.03,34.58c-4.51,0-9.02-2.2-11.64-5.9-5.32-7.69-9.61-8.99-18.36-5.56-11.86,4.64-17.16.59-22.77-3.7-3.72-2.84-7.57-5.78-13.78-6.7-.48-.07-.81-.52-.74-1s.52-.82,1-.74c6.66.98,10.87,4.2,14.59,7.04,5.43,4.15,10.12,7.73,21.05,3.46,9.51-3.72,14.67-2.16,20.45,6.19,2.36,3.33,7.52,6.07,12.8,4.85,6.19-1.42,10.51-7.72,12.18-17.73.08-.48.53-.81,1.01-.72.48.08.8.53.72,1.01-2.42,14.52-9.51,18.24-13.53,19.16-.99.23-1.99.34-3,.34Z"/>
  <path class="cls-18" d="M299.95,63.98c-1.8,0-3.49-.51-4.81-1.57-3.36-2.68-3.44-7.88-.22-13.93.6-1.13.71-1.95.32-2.42-1.11-1.34-8.27-1.74-22.74,2.87-.46.15-.96-.11-1.11-.57s.11-.96.57-1.11c.05-.02,5.21-1.65,10.71-2.79,7.77-1.6,12.32-1.45,13.92.47.9,1.08.86,2.55-.12,4.38-2.79,5.23-2.88,9.62-.24,11.72,2.53,2.01,6.84,1.44,10.04-1.33.37-.32.92-.28,1.24.09.32.37.28.92-.09,1.24-2.23,1.94-4.96,2.94-7.48,2.94Z"/>
  <g>
    <path class="cls-9" d="M281.64,65.26c.19-1.86,3.22-.01,3.99,1.87.61,1.49-1.36,4.16-7.42,4.16s-6.52-2.23-4.69-2.65c.92-.21,3.61-.06,5.65-.29,2.78-.32,2.43-2.68,2.48-3.09Z"/>
    <path class="cls-18" d="M278.21,71.42c-4.09,0-5.66-1-5.76-1.85-.05-.48.35-.89,1.03-1.04.47-.11,1.37-.12,2.42-.14s2.23-.04,3.25-.15c2.36-.27,2.36-2.08,2.36-2.77,0-.09,0-.17,0-.22h0c.05-.5.31-.81.73-.87,1.07-.16,2.92,1.29,3.5,2.71.23.55.12,1.21-.29,1.83-.51.75-2.22,2.51-7.25,2.51ZM281.77,65.27s0,.11,0,.19c0,.67,0,2.72-2.58,3.02-1.03.12-2.22.14-3.27.16-1.03.02-1.92.03-2.36.13-.55.13-.88.43-.84.77.06.56,1.3,1.63,5.51,1.63,3.4,0,6.03-.9,7.04-2.4.36-.54.46-1.12.27-1.59-.58-1.42-2.38-2.69-3.23-2.56-.31.04-.48.26-.52.65h0Z"/>
  </g>
  <g>
    <path class="cls-9" d="M274.13,47.33c1.86.19.01,3.22-1.87,3.99-1.49.61-4.16-1.36-4.16-7.42,0-6.06,2.23-6.52,2.65-4.69.21.92.06,3.61.29,5.65.32,2.78,2.68,2.43,3.09,2.48Z"/>
    <path class="cls-18" d="M271.71,51.55c-.4,0-.82-.14-1.23-.41-.75-.51-2.51-2.22-2.51-7.25,0-4.09,1-5.66,1.85-5.76.47-.06.89.35,1.05,1.03.11.47.12,1.37.14,2.42s.04,2.23.15,3.25c.27,2.34,1.99,2.36,2.74,2.36h.03c.09,0,.16,0,.21,0,.5.05.81.31.87.73.15,1.05-1.29,2.92-2.71,3.5-.19.08-.39.12-.6.12ZM269.91,38.39s-.04,0-.05,0c-.56.06-1.63,1.3-1.63,5.51,0,3.4.9,6.03,2.4,7.04.54.36,1.12.46,1.59.27,1.42-.58,2.68-2.37,2.56-3.23-.04-.31-.26-.48-.65-.52h0s-.11,0-.19,0h-.02c-.69,0-2.7-.02-3-2.58-.12-1.03-.14-2.22-.16-3.27-.02-1.03-.03-1.92-.13-2.36-.12-.52-.4-.84-.72-.84Z"/>
  </g>
  <g>
    <path class="cls-11" d="M131.11,51.39c.11-1.45,1.31-2.8,2.75-2.6,12.13,1.69,21.33-2.91,21.97-.02.65,2.89,2.45,14.4-7.65,15.05-10.1.65-17.41-.86-17.41-4.95,0-2.38.18-5.39.34-7.48Z"/>
    <path class="cls-18" d="M143.89,64.23c-6.01,0-10.27-.95-12.19-2.75-.79-.74-1.18-1.61-1.18-2.6,0-2.4.18-5.4.34-7.5h0c.06-.89.51-1.75,1.18-2.29.55-.44,1.21-.64,1.87-.55,6.26.88,11.7.06,15.67-.53,3.84-.57,6.16-.92,6.52.71.42,1.87,1.54,8.26-1.43,12.22-1.43,1.9-3.6,2.96-6.46,3.14-1.52.1-2.96.15-4.32.15ZM133.58,49.03c-.53,0-.95.24-1.22.46-.56.46-.93,1.17-.99,1.92h0c-.15,2.09-.33,5.08-.33,7.46,0,.84.34,1.59,1.02,2.22,2.22,2.08,8.09,2.98,16.12,2.47,2.7-.17,4.74-1.16,6.07-2.93,2.84-3.78,1.74-9.98,1.34-11.79-.26-1.15-2.52-.82-5.94-.31-4,.59-9.48,1.41-15.82.53-.09-.01-.17-.02-.25-.02Z"/>
  </g>
  <g>
    <g>
      <path class="cls-18" d="M142.25,6.09s-2.87-.49-3,4.52,5.16,3.89,6.14,1.96.85-6.65-3.14-6.48Z"/>
      <g>
        <path class="cls-17" d="M148.11,10.22s-1.22,2.89-1.77,1.46-.49-2.07-.49-2.07l2.25.61Z"/>
        <path class="cls-18" d="M146.73,12.21h0c-.21,0-.38-.16-.5-.48-.55-1.44-.5-2.1-.5-2.13v-.15s2.55.68,2.55.68l-.06.13c-.14.32-.85,1.94-1.49,1.94ZM145.98,9.78c.02.26.1.87.48,1.86.06.14.15.32.27.32h0c.33,0,.88-.92,1.2-1.65l-1.96-.53Z"/>
      </g>
      <path class="cls-18" d="M140.95,9.72l-.27-.21.13-.17c.28-.35.73-.52,1.17-.46l1.99.29-.05.34-1.99-.29c-.32-.05-.65.08-.85.33l-.13.17Z"/>
    </g>
    <g>
      <path class="cls-17" d="M143.87,8.85s-.04.19-.09.46c-.13.82-.27,2.39.68,1.75,1.27-.85,1.59-1.41,1.59-1.41l-2.19-.8Z"/>
      <path class="cls-18" d="M144.08,11.34c-.08,0-.15-.02-.22-.06-.31-.2-.38-.87-.2-1.98.04-.28.09-.47.09-.47l.03-.14,2.47.9-.07.13s-.35.59-1.63,1.45c-.17.11-.32.17-.46.17ZM143.96,9.01c-.02.08-.04.19-.06.32-.18,1.12-.07,1.63.09,1.73.1.07.28-.02.4-.1.89-.59,1.3-1.04,1.47-1.25l-1.9-.7Z"/>
    </g>
  </g>
  <g>
    <g>
      <g>
        <path class="cls-15" d="M108.9,33.92s-7.94-4.07-5.35-7.36c2.06-2.61,6.5,2.14,5.35,7.36Z"/>
        <path class="cls-18" d="M108.99,34.1l-.14-.07c-.21-.11-5.27-2.73-5.88-5.52-.16-.74,0-1.42.49-2.04.63-.81,1.56-1,2.53-.54,2.06.97,3.82,4.5,3.04,8.01l-.04.16ZM104.97,25.94c-.51,0-.96.23-1.32.69-.44.55-.58,1.17-.44,1.83.53,2.42,4.76,4.82,5.6,5.27.66-3.34-.99-6.65-2.94-7.57-.31-.15-.62-.22-.9-.22Z"/>
      </g>
      <g>
        <path class="cls-17" d="M110.96,37.63s3.46-7.05,6.52-4.84c3.33,2.4-7.41,9.04-6.52,4.84Z"/>
        <path class="cls-18" d="M111.89,39.12c-.19,0-.36-.02-.51-.08-.36-.13-.74-.48-.54-1.43v-.03c.1-.19,2.31-4.64,4.82-5.27.68-.17,1.32-.04,1.9.38.77.56.9,1.38.38,2.37-1.02,1.93-4.31,4.06-6.05,4.06ZM111.08,37.68c-.13.61,0,.99.39,1.13,1.39.5,5.18-1.84,6.25-3.86.46-.88.36-1.57-.3-2.05-.52-.38-1.09-.49-1.69-.34-2.33.58-4.5,4.85-4.64,5.12Z"/>
      </g>
      <g>
        <path class="cls-3" d="M108.95,37.98s-1.04-3.03-2.97-2.93c-1.93.09-1.84,2.6.33,3.68s3.06.8,2.64-.75Z"/>
        <path class="cls-18" d="M108.34,39.53c-.48,0-1.17-.23-2.09-.68-1.38-.69-1.92-1.92-1.74-2.79.14-.67.69-1.1,1.46-1.13.03,0,.06,0,.1,0,1.94,0,2.95,2.89,2.99,3.02h0c.19.71.14,1.17-.15,1.41-.14.12-.33.17-.58.17ZM106.07,35.18s-.05,0-.08,0c-.66.03-1.11.37-1.23.94-.16.77.34,1.88,1.6,2.51,1.57.78,2.17.73,2.39.54.21-.17.23-.55.07-1.14-.04-.11-1.02-2.85-2.76-2.85Z"/>
      </g>
      <g>
        <path class="cls-16" d="M112.4,15.82c.9-1.26,2.7-.76,3.62.31.86.92,1.07,2.28.89,3.42-.04.29.08.28.27.15,1.12-.9,3.88-2.22,5.32-.58,1.21,1.66-1.41,3.11-2.64,3.68-.78.39-.98.55-.49.93,1.03.73,2.81,1.93,3.37,3.6.68,1.65-.29,3.98-2.09,4.28-.69.03-1.22-.78-2.12-1.99-.62-.8-1.84-2.64-2.39-3.16-.09-.03.01.26.18.78.24.87.79,2.48.11,3.29-.2.23-.51.35-.81.3-1.25-.18-2.04-2.31-2.22-3.48-.08-.29-.13-.52-.41-.6-2.25-.14-4.61-1.3-6.15-3.07-.98-1.05-1.61-2.98-1.06-4.14.46-1.2,2.18-1.71,3.74-.21,3.12,3,2.8.91,2.63.06-.26-1.3-.33-2.69.27-3.56Z"/>
        <path class="cls-18" d="M120.62,31.73c-.69,0-1.22-.71-2-1.77l-.2-.27c-.22-.28-.52-.7-.83-1.14-.44-.61-.92-1.29-1.28-1.71.02.08.05.16.08.25l.11.37c.27.94.67,2.36.01,3.14-.22.26-.57.4-.92.35-1.31-.19-2.13-2.3-2.33-3.58v-.04c-.09-.27-.13-.41-.32-.46-2.27-.13-4.65-1.33-6.21-3.1-.99-1.07-1.66-3.04-1.07-4.28.22-.58.74-1.01,1.37-1.15.84-.19,1.77.15,2.56.91,1.6,1.54,2.15,1.6,2.34,1.5.14-.08.27-.37.08-1.32-.34-1.66-.24-2.89.29-3.66h0c.35-.49.86-.77,1.47-.8.84-.04,1.74.39,2.35,1.09.79.85,1.13,2.16.92,3.52,0,.03,0,.06,0,.07.02,0,.05-.02.08-.05.9-.72,3.87-2.4,5.49-.56.31.43.41.87.29,1.32-.3,1.16-2,2.1-2.98,2.55-.23.12-.67.33-.69.46,0,.03.02.11.22.26l.15.11c1.08.77,2.72,1.92,3.27,3.55.37.89.28,2.03-.23,2.96-.45.82-1.15,1.35-1.95,1.49-.01,0-.03,0-.04,0ZM116.08,26.31l.14.05c.37.35,1.01,1.25,1.58,2.04.31.44.61.85.83,1.13l.2.27c.74,1,1.23,1.67,1.79,1.67,0,0,.02,0,.03,0,.72-.12,1.35-.61,1.76-1.36.48-.87.56-1.92.22-2.75-.52-1.56-2.12-2.69-3.18-3.43l-.15-.11c-.17-.13-.34-.29-.32-.49.02-.23.27-.39.83-.66.95-.44,2.57-1.33,2.84-2.39.1-.38.02-.74-.25-1.1-1.37-1.55-4.06-.26-5.14.61-.13.09-.27.16-.38.08-.13-.08-.1-.28-.09-.35.2-1.28-.12-2.52-.86-3.31-.56-.65-1.41-1.04-2.15-1.01-.53.02-.97.26-1.27.69-.49.71-.58,1.88-.25,3.46.12.57.22,1.36-.2,1.59-.45.25-1.29-.24-2.63-1.53-.73-.7-1.59-1.01-2.34-.85-.55.12-1,.5-1.2,1.01-.54,1.13.11,3.02,1.03,4.01,1.51,1.73,3.84,2.89,6.06,3.03.36.1.43.36.51.64v.05c.18,1.04.92,3.21,2.14,3.39.26.04.53-.07.7-.26.58-.68.19-2.02-.06-2.91l-.11-.37c-.18-.59-.22-.71-.13-.8l.06-.05Z"/>
      </g>
      <g>
        <line class="cls-3" x1="112.97" y1="26.74" x2="107.49" y2="47.67"/>
        <polygon class="cls-18" points="107.62 47.7 107.37 47.64 112.84 26.71 113.09 26.77 107.62 47.7"/>
      </g>
      <g>
        <rect class="cls-17" x="113.93" y="39.38" width="2.87" height="2.87" rx="1.43" ry="1.43" transform="translate(233.85 10.23) rotate(146.05)"/>
        <path class="cls-18" d="M115.37,42.37c-.5,0-.99-.24-1.29-.69-.23-.34-.32-.76-.24-1.17s.31-.76.66-.99c.35-.23.76-.32,1.17-.24.41.08.76.31.99.66.48.71.29,1.68-.42,2.16-.27.18-.57.26-.87.26ZM115.36,39.5c-.26,0-.51.08-.73.22h0c-.29.2-.49.49-.55.83s0,.69.2.98c.4.6,1.22.76,1.82.35.6-.4.76-1.22.35-1.82-.2-.29-.49-.49-.83-.55-.08-.02-.17-.02-.25-.02Z"/>
      </g>
    </g>
    <g>
      <line class="cls-1" x1="99.78" y1="76.49" x2="106.2" y2="53.08"/>
      <polygon class="cls-18" points="99.9 76.53 99.66 76.46 106.08 53.05 106.32 53.12 99.9 76.53"/>
    </g>
  </g>
  <path class="cls-18" d="M300.02,8.41s2.87-.49,3,4.52-5.16,3.89-6.14,1.96-.85-6.65,3.14-6.48Z"/>
  <g>
    <path class="cls-7" d="M302.78,10.19l-6.2,6.54c-1.96,2.44-3.42,1.09-3.66.78h0s2.71-2.42,2.71-2.42c0,0-1.23-2.34.2-4.4,1.63-2.36,4.41-2.98,6.94-.49Z"/>
    <path class="cls-18" d="M294.3,18.42h-.01c-.78,0-1.35-.48-1.57-.76l-.15-.19,2.75-2.46c-.27-.62-.97-2.64.31-4.48.89-1.29,2.1-2.06,3.4-2.18,1.35-.13,2.71.44,3.94,1.65l.18.18-6.38,6.73c-.8,1-1.64,1.51-2.47,1.51ZM293.3,17.51c.19.16.53.38.99.38h0c.67,0,1.37-.45,2.08-1.33l6.03-6.37c-1.06-.98-2.21-1.43-3.34-1.33-1.15.11-2.22.8-3.02,1.96-1.32,1.91-.2,4.11-.19,4.13l.09.18-2.66,2.37Z"/>
  </g>
  <g>
    <g>
      <rect class="cls-14" x="254.24" y="2.1" width="10.33" height="17.34" rx="5.17" ry="5.17" transform="translate(78.06 -175.02) rotate(43.32)"/>
      <path class="cls-18" d="M257,18.61c-1.36,0-2.64-.51-3.62-1.44-1.02-.97-1.61-2.28-1.65-3.69-.04-1.42.47-2.76,1.43-3.79l4.81-5.1c.97-1.02,2.28-1.61,3.69-1.65,1.42-.04,2.76.47,3.79,1.43s1.61,2.28,1.65,3.69c.04,1.42-.47,2.76-1.43,3.79l-4.81,5.1c-.97,1.02-2.28,1.61-3.69,1.65-.05,0-.11,0-.16,0ZM261.82,3.19c-.05,0-.1,0-.15,0-1.35.04-2.6.6-3.52,1.58l-4.81,5.1c-.92.98-1.4,2.26-1.36,3.61.04,1.35.6,2.6,1.57,3.52.97.92,2.25,1.42,3.61,1.36,1.35-.04,2.6-.6,3.52-1.57l4.81-5.1c.92-.98,1.4-2.26,1.36-3.61-.04-1.35-.6-2.6-1.57-3.52-.94-.88-2.16-1.37-3.45-1.37Z"/>
    </g>
    <g>
      <path class="cls-10" d="M260.96,10.02c1.71.73,1.41,2.14,1.41,2.14-2.43-1.24-3.36,1.7-1.17,1.77,0,0-2.98,2.36-4.09-.04-.21-.45-.78-.32-1.16-1.02-.83-1.54,1.37-4.57,2.78-4.68.96-.08,1.48.74,1.64,1.19.1.28.31.52.59.64Z"/>
      <path class="cls-18" d="M258.69,15.1c-.15,0-.31-.02-.46-.05-.54-.13-.96-.5-1.23-1.1-.08-.16-.22-.24-.4-.33-.24-.12-.53-.27-.76-.68-.35-.64-.23-1.6.32-2.62.58-1.06,1.64-2.18,2.56-2.25.05,0,.09,0,.14,0,.93,0,1.46.79,1.63,1.27.09.26.28.46.52.57h0c1.78.76,1.49,2.27,1.49,2.28l-.03.16-.15-.07c-.75-.38-1.46-.38-1.9,0-.28.25-.4.63-.28.94.13.36.52.58,1.07.6h.34s-.27.22-.27.22c-.06.05-1.36,1.07-2.59,1.07ZM258.86,8.32s-.07,0-.11,0c-.72.06-1.73.97-2.36,2.12-.51.94-.63,1.81-.32,2.38.19.34.42.46.65.58.2.1.4.2.51.45.24.53.6.85,1.07.96.93.22,2.07-.44,2.58-.78-.48-.09-.83-.35-.96-.73-.15-.42-.01-.89.35-1.21.48-.42,1.23-.46,2.01-.11.02-.37-.09-1.29-1.36-1.84h0c-.3-.13-.54-.39-.66-.71-.15-.42-.61-1.11-1.4-1.11Z"/>
    </g>
    <g>
      <path class="cls-8" d="M260.96,10.02s1.69-3.5,3.01-2.22c1.23,1.19-3.87,3.77-3.01,2.22Z"/>
      <path class="cls-18" d="M261.13,10.62c-.11,0-.2-.02-.26-.06-.11-.08-.21-.24-.01-.59.07-.13,1.16-2.35,2.32-2.56.33-.06.63.04.89.3.2.19.44.61-.11,1.29-.6.74-2.11,1.62-2.82,1.62ZM263.35,7.64s-.09,0-.13.01c-1.05.19-2.13,2.4-2.14,2.42h0c-.09.16-.1.26-.07.28.26.19,1.99-.57,2.75-1.51.33-.4.37-.72.13-.96-.17-.16-.35-.25-.54-.25Z"/>
    </g>
  </g>
  <g>
    <path class="cls-9" d="M219.25,13.45c1.4.06,2.43-1.31,1.95-2.62,0-.02-.02-.04-.02-.06-.72-1.9,1.58-4.32,2.78-5.33,2.18-1.83,1.02-2.8-.45-2.42s-3.63,2.51-3.04,4.14-1.03,1.73-2.98,1.47-7.49-2.97-8.63-1.16c-1.45,2.3,4.74,2.28,5.72,2.23.12,0,.16.16.06.21-1.51.79-5.75,3.26-3.77,5.25,1.45,1.47,4.09-1.3,6.19-1.59.93-.13,1.66-.15,2.2-.13Z"/>
    <path class="cls-18" d="M211.9,15.71c-.42,0-.8-.13-1.12-.46-.44-.44-.61-.93-.53-1.47.26-1.69,3.12-3.35,4.33-3.98-.06.03-5.1.21-5.94-1.24-.2-.34-.16-.73.11-1.16.86-1.36,3.9-.37,6.34.42,1,.32,1.85.6,2.41.68,1,.13,2.38.25,2.81-.29.18-.22.19-.56.03-1.01-.2-.56-.11-1.21.25-1.89.58-1.09,1.84-2.15,2.88-2.42.79-.2,1.49-.03,1.73.43.17.32.23,1.04-1.16,2.21-.37.31-3.55,3.07-2.74,5.19l.02.07c.24.66.14,1.36-.28,1.92-.42.57-1.08.89-1.8.86-.65-.03-1.38.01-2.18.12-.77.11-1.64.57-2.47,1.01-.93.5-1.88,1-2.69,1ZM214.59,9.58c.11,0,.2.07.23.17.03.11-.02.22-.12.27-1.18.62-3.96,2.22-4.2,3.8-.07.46.08.87.46,1.26.84.84,2.14.15,3.52-.58.86-.46,1.74-.93,2.56-1.04.81-.11,1.56-.16,2.22-.13h0c.62.03,1.22-.26,1.59-.76.36-.5.45-1.12.24-1.69l-.02-.06c-.87-2.28,2.44-5.15,2.82-5.47.91-.77,1.32-1.48,1.1-1.91-.18-.35-.77-.47-1.44-.3-.98.25-2.18,1.26-2.72,2.29-.23.43-.45,1.07-.23,1.69.19.54.17.96-.07,1.25-.4.49-1.34.61-3.04.38-.58-.08-1.45-.36-2.46-.69-2.24-.73-5.3-1.72-6.05-.53-.22.35-.26.65-.11.9.66,1.13,4.68,1.19,5.72,1.14h.01Z"/>
  </g>
  <g>
    <g>
      <path class="cls-2" d="M218.4,19.3c1.07-.14,2.02-.55,2.7-1.1l.17,1.28c.21,1.54-.88,2.97-2.42,3.18s-2.97-.89-3.18-2.43l-.17-1.28c.8.35,1.83.49,2.9.35Z"/>
      <path class="cls-18" d="M218.47,22.81c-.64,0-1.27-.21-1.79-.61-.63-.48-1.03-1.17-1.14-1.95l-.2-1.5.2.09c.82.35,1.83.48,2.84.34h0c1.01-.13,1.95-.51,2.64-1.07l.17-.14.2,1.5c.1.78-.1,1.55-.58,2.18-.48.63-1.17,1.04-1.95,1.14-.13.02-.26.03-.39.03ZM215.65,19.15l.14,1.07c.1.71.46,1.35,1.04,1.79.58.44,1.29.63,2,.54.71-.09,1.34-.46,1.78-1.04.44-.58.63-1.29.53-2l-.14-1.06c-.7.51-1.61.86-2.59.99h0c-.97.13-1.94.03-2.77-.28Z"/>
    </g>
    <g>
      <path class="cls-13" d="M220.92,16.92l.17,1.29c-.67.54-1.63.95-2.7,1.1s-2.1,0-2.9-.35l-.17-1.29c.8.35,1.83.49,2.9.35s2.02-.55,2.7-1.1Z"/>
      <path class="cls-18" d="M217.58,19.48c-.76,0-1.5-.14-2.13-.41l-.07-.03-.21-1.58.2.09c.82.35,1.83.48,2.84.34,1.01-.14,1.95-.52,2.64-1.07l.17-.14.21,1.58-.05.04c-.72.58-1.7.98-2.76,1.12-.28.04-.56.06-.84.06ZM215.61,18.87c.81.33,1.79.44,2.77.31.99-.13,1.9-.5,2.58-1.03l-.13-1c-.7.51-1.61.86-2.59.99-.97.13-1.95.03-2.77-.28l.13,1Z"/>
    </g>
    <g>
      <path class="cls-12" d="M219.62,7.14l1.31,9.77c-.67.54-1.63.95-2.7,1.1s-2.1,0-2.9-.35l-1.31-9.77c-.13-.96.08-3.16.63-4.71.46.2,1.02.34,1.63.24.59-.1,1.05-.43,1.4-.79.22.31.44.66.64,1.02.68,1.25,1.2,2.72,1.3,3.49Z"/>
      <path class="cls-18" d="M217.41,18.19c-.76,0-1.5-.14-2.13-.41l-.07-.03v-.07s-1.32-9.77-1.32-9.77c-.14-1.02.09-3.23.64-4.76l.04-.13.12.05c.54.23,1.06.31,1.56.23.48-.08.92-.33,1.33-.76l.1-.11.09.12c.23.33.45.68.65,1.04.64,1.17,1.21,2.69,1.32,3.53l1.32,9.84-.05.04c-.72.58-1.7.98-2.76,1.12-.28.04-.56.06-.84.06ZM215.44,17.58c.81.33,1.79.44,2.77.31.99-.13,1.9-.5,2.58-1.03l-1.3-9.7c-.09-.69-.58-2.14-1.29-3.44-.17-.31-.35-.61-.55-.89-.42.4-.87.64-1.36.72-.5.09-1.03.02-1.57-.19-.49,1.46-.71,3.56-.58,4.52l1.3,9.7Z"/>
    </g>
    <g>
      <path class="cls-18" d="M217.67,2.63c-.35.36-.81.69-1.4.79-.6.1-1.16-.04-1.63-.24.14-.38.3-.73.48-1.01.25-.39.55-.65.89-.69.3-.04.6.08.9.32.26.21.51.49.76.83Z"/>
      <path class="cls-18" d="M215.86,3.58c-.41,0-.83-.09-1.26-.28l-.11-.05.04-.11c.16-.42.32-.76.49-1.04.29-.45.62-.7.98-.75.32-.04.64.07.99.35.26.21.51.49.78.85l.06.08-.07.08c-.44.46-.94.74-1.47.83-.14.02-.29.04-.43.04ZM214.81,3.12c.5.2.98.26,1.45.18.45-.07.87-.3,1.25-.68-.23-.31-.45-.54-.67-.72-.29-.23-.55-.33-.81-.3-.28.04-.55.25-.8.64-.15.23-.29.52-.43.88Z"/>
    </g>
  </g>
  <g>
    <path class="cls-9" d="M295.42,39.77l-3.45-10.81c-.05-.15-.19-.25-.35-.25h-15.18c-.24,0-.42.23-.35.47.94,3.22,3.6,12.56,4.06,14.18.04.15.17.25.32.26l18.43,1.58c.09,0,.18-.02.25-.07,3.52-2.66,6.87-4.75,8.74-5.87.34-.2.16-.72-.23-.68-3.43.41-10.33,1.26-11.85,1.44-.17.02-.34-.08-.39-.25Z"/>
    <path class="cls-18" d="M298.93,45.46s-.04,0-.05,0l-18.43-1.58c-.26-.02-.48-.2-.55-.45-.46-1.62-3.13-10.95-4.06-14.17-.05-.19-.02-.39.1-.55s.3-.25.5-.25h15.18c.27,0,.51.17.6.43l3.45,10.81s.07.08.11.07c1.52-.19,8.42-1.03,11.85-1.45.31-.03.57.13.67.42.1.29-.01.58-.27.74-1.72,1.03-5.15,3.15-8.71,5.85-.11.08-.24.13-.38.13ZM276.44,28.98s-.07.03-.08.04-.03.05-.02.09c.94,3.22,3.6,12.56,4.06,14.18.01.04.05.07.09.07l18.43,1.58s.05,0,.07-.02c3.59-2.72,7.03-4.85,8.76-5.88.06-.04.06-.09.05-.12-.01-.04-.05-.08-.11-.07-3.43.41-10.33,1.26-11.85,1.44-.3.04-.58-.15-.67-.43h0s-3.45-10.81-3.45-10.81c-.01-.04-.05-.07-.1-.07h-15.18Z"/>
  </g>
  <polygon class="cls-18" points="295.39 42.05 293.61 42.47 296.29 42.88 297.73 42.24 295.39 42.05"/>
  <polygon class="cls-1" points="294.25 39.99 281.24 42.47 277.63 29.93 291.19 29.91 294.25 39.99"/>
  <path class="cls-18" d="M314.98,48.63c-5.21,0-12.25-3.14-19.85-9.11-.38-.3-.45-.86-.15-1.24.3-.38.85-.45,1.24-.15,10.78,8.46,20.46,11.08,24.09,6.51,5.36-6.74-11.06-22.51-17.83-28.02-.38-.31-.44-.86-.13-1.24.31-.38.86-.44,1.24-.13,1.05.85,25.64,21.01,18.1,30.48-1.54,1.94-3.85,2.88-6.71,2.88Z"/>
  <path class="cls-18" d="M324.83,30.06c-.23,0-.46,0-.69-.02-9.89-.61-21.61-13.96-22.11-14.52-.32-.37-.28-.92.09-1.24.37-.32.92-.28,1.24.09.12.13,11.73,13.36,20.89,13.92,2.23.14,4.05-.48,5.6-1.87,1.52-1.36,1.8-3.29.78-5.28-1.81-3.54-7.14-6.36-13.81-4.91-.48.1-.95-.2-1.05-.67s.2-.95.67-1.05c7.54-1.64,13.63,1.69,15.75,5.83,1.39,2.72.95,5.48-1.17,7.39-1.73,1.56-3.81,2.34-6.2,2.34Z"/>
  <g>
    <g>
      <g>
        <rect class="cls-19" x="308.76" y="14.39" width="9.13" height="2.15" rx="1.07" ry="1.07" transform="translate(402.96 316.1) rotate(-109.43)"/>
        <path class="cls-18" d="M314.49,19.96c-.49,0-.96-.31-1.13-.8l-2.32-6.58c-.11-.3-.09-.62.05-.92.14-.29.38-.51.68-.61.3-.1.63-.09.92.05.29.14.51.38.61.68l2.32,6.58c.22.62-.11,1.31-.73,1.53-.13.05-.27.07-.4.07ZM312.17,11.23c-.1,0-.21.02-.31.05-.24.08-.43.26-.54.49-.11.23-.12.49-.04.72l2.32,6.58c.17.49.72.76,1.21.58.49-.17.75-.72.58-1.21l-2.32-6.58c-.14-.39-.5-.63-.89-.63Z"/>
      </g>
      <g>
        <path class="cls-12" d="M312.28,11.75c.48-.16,1.65-.96.68-2.92-.39-.8-1.5-1.88-1.86-2.47s-.17-1.27-.17-1.27c-.29.1-.86.99-1.15,1.49-.39.68-1.1,3.53.73,4.92.71.54,1.29.41,1.77.25Z"/>
        <path class="cls-18" d="M311.55,12.02c-.34,0-.71-.1-1.12-.42-1.93-1.46-1.15-4.42-.77-5.08.19-.33.85-1.43,1.22-1.55l.23-.08-.07.23s-.18.61.16,1.17c.14.23.42.56.71.9.43.51.92,1.09,1.16,1.58.41.84.49,1.56.24,2.16-.29.68-.88.9-1,.94h0c-.23.08-.49.15-.77.15ZM310.76,5.39c-.23.24-.55.71-.87,1.26-.36.62-1.1,3.39.7,4.75.66.5,1.18.39,1.66.23h0c.27-.09.66-.35.85-.8.22-.52.14-1.18-.24-1.95-.23-.46-.7-1.03-1.13-1.52-.3-.35-.58-.68-.73-.93-.23-.38-.26-.77-.24-1.04Z"/>
      </g>
    </g>
    <g>
      <path class="cls-9" d="M310.91,12.79c1.61,1.32,4.8.83,4.13-1.21-1.23-3.77,4.25-3.37,2.49-1.38-2.53,2.84-.56,3.35-.19,4.98.46,2.06-.78,3.46-3.1,3.81-2.08.31-3.78-.8-4.61-2.53-1.07-2.24.07-4.66,1.28-3.66Z"/>
      <path class="cls-18" d="M313.54,19.16c-1.72,0-3.23-.97-4.03-2.66-.75-1.56-.45-3.3.28-3.88.37-.29.8-.26,1.19.06h0c1.04.86,2.7.89,3.5.34.33-.23.68-.66.43-1.42-.59-1.81.36-2.54.79-2.78.75-.4,1.75-.32,2.14.17.16.2.33.63-.23,1.26-1.76,1.98-1.28,2.75-.73,3.65.22.36.46.74.56,1.21.21.94.08,1.79-.38,2.45-.54.79-1.52,1.32-2.82,1.51-.24.04-.48.05-.71.05ZM310.34,12.68c-.13,0-.27.05-.39.15-.66.52-.91,2.11-.21,3.57.87,1.81,2.58,2.75,4.48,2.46,1.24-.19,2.15-.67,2.66-1.41.42-.62.54-1.38.34-2.26-.1-.43-.32-.79-.53-1.13-.58-.94-1.13-1.83.75-3.95.23-.26.46-.64.22-.94-.28-.35-1.13-.47-1.83-.11-.47.25-1.18.91-.67,2.48.23.71.04,1.31-.53,1.7-.98.67-2.76.5-3.8-.36-.17-.14-.33-.2-.49-.2Z"/>
    </g>
  </g>
  <path class="cls-18" d="M245.8,70.44c-.32,0-.64,0-.96-.01-19.4-.39-30.71-12.73-32.55-21.37-.1-.48.2-.94.68-1.05.47-.1.94.2,1.05.68,1.71,8.07,12.42,19.6,30.86,19.97,8.74.17,15.19-2.09,18.15-6.37,2.31-3.33,2.42-7.88.32-13.14-3.12-7.83-3.23-13.87-.35-17.97,3.91-5.55,11.78-5.33,12.11-5.32.49.02.87.42.85.91s-.42.85-.91.85c-.08,0-7.26-.19-10.61,4.58-2.52,3.58-2.33,9.06.55,16.29,2.33,5.84,2.15,10.96-.51,14.8-3.2,4.62-9.81,7.14-18.67,7.14Z"/>
  <g>
    <path class="cls-9" d="M297.44,39.02c.12-.27-.25-1.29-.28-1.59-.22-1.8,1.07-3.09,2.94-3.04,0,0,.43-1.69-1.81-1.44-1.4.16-1.91,1.97-2.2,2.53s-.39,1.41-1.46,1.02c-3.06-1.12-10.48-3.84-10.63-1.55-.07,1.12,1.31.76,2.67.81,1.11.04,2.24.58,2.24.58,0,0-.96,2.41,1.41,3.84,1.37.83,4.09.51,5.49.27.58-.1,1.09-.44,1.39-.94.1-.16.19-.33.26-.48Z"/>
    <path class="cls-18" d="M292.97,40.83c-1.03,0-2.04-.14-2.73-.55-2.13-1.29-1.65-3.37-1.5-3.88-.3-.13-1.21-.49-2.09-.52-.3-.01-.59,0-.88,0-.75.02-1.39.04-1.71-.3-.15-.16-.22-.38-.2-.66.02-.31.16-.56.42-.73,1.6-1.04,7.51,1.12,10.35,2.17.8.29.98-.14,1.19-.64.04-.11.09-.21.14-.31.05-.09.1-.21.16-.36.33-.79.89-2.1,2.13-2.24.8-.09,1.37.05,1.7.42.42.48.26,1.14.25,1.17l-.02.1h-.1c-.92-.02-1.69.27-2.21.84-.48.53-.69,1.26-.6,2.05.01.09.06.27.11.46.15.57.25.99.16,1.2h0c-.06.15-.15.31-.27.5-.32.53-.86.9-1.48,1-.75.13-1.8.27-2.85.27ZM286.35,35.63c.11,0,.21,0,.32,0,1.12.04,2.24.57,2.29.59l.11.05-.04.11c-.04.09-.89,2.33,1.36,3.69,1.37.83,4.23.45,5.4.25.54-.09,1.02-.42,1.31-.89.11-.17.19-.33.25-.47h0c.06-.14-.09-.7-.18-1.03-.06-.21-.1-.39-.12-.5-.1-.87.13-1.67.66-2.25.55-.6,1.36-.93,2.29-.93h0c.02-.18.04-.57-.21-.85-.27-.3-.77-.42-1.48-.34-1.1.12-1.62,1.35-1.93,2.09-.06.15-.12.28-.17.38-.05.09-.09.19-.13.29-.21.49-.49,1.15-1.48.79-2.61-.95-8.66-3.17-10.16-2.2-.19.13-.29.3-.31.54-.01.21.03.36.13.46.25.26.86.24,1.52.22.19,0,.38-.01.57-.01Z"/>
  </g>
  <g>
    <path class="cls-9" d="M212.91,49.76c4.52-.98.38-12.49-1.33-9.98-1.28,1.89,3.36,6.24.09,5.66-3.28-.57-6.08-4.85-4.16-6.51s-.09-7.47-2.28-5.72c-1.77,1.41.89,3.05-.3,3.99-1.6,1.26-.92,2.92-.04,4.1.34.46-1.7.31-2.04,2.35-.48,2.9,4.73,8.02,10.05,6.1Z"/>
    <path class="cls-18" d="M210.52,50.3c-1.85,0-3.73-.7-5.33-2.03-1.7-1.41-2.69-3.27-2.46-4.63.23-1.37,1.17-1.79,1.73-2.05.14-.06.32-.15.34-.19-1.31-1.76-1.29-3.24.05-4.29.44-.35.28-.78-.01-1.46-.33-.75-.73-1.69.31-2.52.72-.57,1.51-.44,2.17.36,1.1,1.33,1.66,4.34.26,5.55-.56.48-.72,1.25-.47,2.17.47,1.68,2.35,3.74,4.57,4.13.53.09.86.06.98-.11.23-.3-.15-1.09-.56-1.93-.6-1.24-1.27-2.65-.64-3.58.31-.46.66-.45.91-.37,1.36.46,2.83,4.49,2.68,7.31-.1,1.83-.84,2.95-2.12,3.23-.78.28-1.6.42-2.42.42ZM206.06,33.01c-.23,0-.49.08-.75.3-.9.71-.56,1.48-.24,2.23.27.63.55,1.28-.06,1.76-1.53,1.21-.86,2.8-.02,3.93.06.08.08.15.06.23-.04.15-.22.23-.48.35-.55.25-1.38.63-1.59,1.86-.21,1.28.74,3.04,2.38,4.4,2.24,1.87,5.05,2.45,7.51,1.56h.02c1.48-.33,1.87-1.82,1.94-3.01.16-2.88-1.36-6.67-2.51-7.05-.24-.08-.44,0-.62.27-.55.81.09,2.15.66,3.33.47.99.85,1.77.53,2.19-.19.25-.58.31-1.22.2-2.32-.41-4.28-2.55-4.76-4.31-.28-1.01-.09-1.87.54-2.42,1.19-1.03.83-3.85-.29-5.21-.26-.32-.63-.62-1.07-.62Z"/>
  </g>
  <g>
    <g>
      <path class="cls-15" d="M248.56,61.01s-6.06-1.32-4.9-3.99c.92-2.12,4.75.28,4.9,3.99Z"/>
      <path class="cls-18" d="M248.69,61.17l-.16-.03c-.16-.04-4.04-.9-4.96-2.68-.24-.48-.26-.98-.04-1.49.29-.67.89-.98,1.64-.83,1.57.29,3.39,2.36,3.5,4.87v.16ZM244.84,56.35c-.49,0-.86.25-1.07.72-.19.44-.18.86.03,1.27.76,1.48,3.88,2.33,4.63,2.51-.17-2.32-1.84-4.2-3.29-4.47-.11-.02-.21-.03-.3-.03Z"/>
    </g>
    <g>
      <path class="cls-17" d="M250.61,63.14s1.07-5.35,3.52-4.41c2.66,1.02-3.37,7.39-3.52,4.41Z"/>
      <path class="cls-18" d="M251.21,64.05s-.05,0-.07,0c-.28-.03-.62-.2-.66-.9v-.02s0-.02,0-.02c.03-.14.72-3.55,2.31-4.42.43-.24.9-.27,1.38-.09.63.24.88.8.7,1.57-.37,1.62-2.52,3.87-3.66,3.87ZM250.73,63.15c.04.61.33.64.43.65.02,0,.03,0,.05,0,.93,0,3.05-2.1,3.42-3.68.15-.65-.03-1.08-.55-1.28-.41-.16-.79-.13-1.17.07-1.43.79-2.13,3.99-2.18,4.24Z"/>
    </g>
    <g>
      <path class="cls-3" d="M249.32,63.73s-1.24-1.85-2.51-1.44-.77,2.08.88,2.41c1.72.35,2.2-.01,1.64-.97Z"/>
      <path class="cls-18" d="M248.75,64.97c-.29,0-.65-.05-1.09-.14-1.07-.22-1.66-.97-1.69-1.6-.03-.49.27-.89.8-1.06,1.36-.43,2.6,1.41,2.66,1.49h0c.26.46.31.79.15,1.02-.14.19-.4.29-.82.29ZM247.18,62.36c-.11,0-.23.02-.34.05-.42.13-.65.43-.63.81.03.53.55,1.17,1.5,1.37,1.23.25,1.57.08,1.66-.05.12-.17-.02-.49-.16-.74-.05-.07-1-1.44-2.03-1.44Z"/>
    </g>
    <g>
      <path class="cls-6" d="M247.69,48.24c.38-1.01,1.68-.99,2.48-.44.74.47,1.12,1.34,1.2,2.14.02.2.1.17.21.05.59-.8,2.21-2.18,3.47-1.34,1.11.9-.39,2.34-1.12,2.94-.46.4-.56.55-.17.72.82.31,2.23.79,2.91,1.81.75.98.51,2.72-.64,3.25-.46.14-.96-.31-1.78-.96-.56-.42-1.7-1.44-2.17-1.7-.06,0,.05.17.26.5.31.54.97,1.52.66,2.19-.09.19-.28.32-.49.35-.87.1-1.78-1.19-2.11-1.94-.11-.18-.18-.33-.38-.33-1.53.31-3.32-.05-4.67-.96-.84-.53-1.61-1.71-1.45-2.59.1-.89,1.16-1.53,2.47-.8,2.63,1.46,2.04.11,1.78-.43-.41-.82-.7-1.75-.45-2.44Z"/>
      <path class="cls-18" d="M252.41,57.87c-.89,0-1.77-1.22-2.13-2.02v-.02c-.12-.18-.16-.24-.27-.24-1.55.31-3.38-.06-4.74-.99-.87-.55-1.68-1.77-1.5-2.72.05-.44.32-.83.74-1.05.54-.28,1.24-.22,1.92.16,1.42.79,1.73.65,1.79.59.06-.06.11-.24-.19-.86-.53-1.06-.68-1.92-.46-2.54h0c.15-.41.45-.69.87-.82.56-.18,1.26-.05,1.8.32.68.43,1.15,1.25,1.26,2.2.73-.97,2.35-2.2,3.62-1.35.3.24.45.53.45.87,0,.85-.98,1.79-1.56,2.27-.09.08-.38.33-.37.4,0,0,.01.04.17.11l.12.04c.87.32,2.18.81,2.85,1.82.41.54.56,1.33.38,2.06-.16.63-.55,1.13-1.07,1.37-.49.15-.98-.23-1.72-.83l-.19-.15c-.2-.15-.47-.38-.76-.62-.34-.28-.71-.59-1-.81l.13.22c.35.59.88,1.48.57,2.15-.11.23-.33.39-.59.42-.04,0-.08,0-.11,0ZM249.99,55.35c.29,0,.4.18.5.36l.02.03c.36.82,1.24,1.96,1.99,1.88.17-.02.32-.13.39-.28.26-.54-.23-1.36-.56-1.91l-.14-.23c-.24-.37-.28-.45-.22-.55l.04-.07.14.02c.31.17.88.64,1.43,1.09.29.24.56.46.75.61l.19.15c.68.54,1.12.9,1.48.79.44-.2.77-.63.92-1.2.16-.66.04-1.37-.34-1.85-.62-.95-1.89-1.42-2.73-1.73l-.12-.04c-.15-.06-.3-.15-.32-.3-.03-.19.15-.36.45-.63.55-.46,1.47-1.33,1.47-2.08,0-.26-.12-.48-.35-.67-1.17-.78-2.72.55-3.29,1.32-.05.06-.15.17-.28.14-.12-.04-.14-.19-.15-.25-.09-.89-.52-1.65-1.15-2.04-.47-.33-1.11-.44-1.59-.29-.34.11-.58.34-.71.67-.2.56-.05,1.34.44,2.34.2.41.4.9.14,1.15-.17.17-.58.28-2.09-.55-.61-.34-1.22-.39-1.68-.15-.34.17-.56.5-.6.86-.16.85.61,1.98,1.39,2.47,1.32.89,3.07,1.25,4.58.95Z"/>
    </g>
    <g>
      <line class="cls-3" x1="250.01" y1="55.47" x2="250.07" y2="78.6"/>
      <polygon class="cls-18" points="249.94 78.6 249.89 55.47 250.14 55.47 250.19 78.6 249.94 78.6"/>
    </g>
    <g>
      <rect class="cls-17" x="253.13" y="63.49" width="1.99" height="1.99" rx="1" ry="1" transform="translate(470.02 -84.28) rotate(131.19)"/>
      <path class="cls-18" d="M254.13,65.61c-.26,0-.53-.09-.74-.28-.46-.41-.51-1.12-.11-1.58h0c.41-.47,1.12-.51,1.58-.11.23.2.36.47.38.77.02.3-.08.59-.28.81-.22.25-.53.38-.84.38ZM253.47,63.91c-.32.36-.28.91.08,1.23.36.31.91.28,1.23-.08.32-.36.28-.91-.08-1.23-.36-.32-.91-.28-1.23.08h0Z"/>
    </g>
  </g>
  <g>
    <g>
      <path class="cls-15" d="M185.56,16.07s-6.06-1.32-4.9-3.99c.92-2.12,4.75.28,4.9,3.99Z"/>
      <path class="cls-18" d="M185.69,16.22l-.16-.03c-.16-.04-4.04-.9-4.96-2.68-.24-.48-.26-.98-.04-1.49.29-.67.89-.98,1.64-.84,1.57.29,3.39,2.36,3.5,4.87v.16ZM181.83,11.41c-.49,0-.86.25-1.07.72-.19.44-.18.86.03,1.27.76,1.48,3.88,2.33,4.63,2.51-.17-2.32-1.84-4.2-3.29-4.47-.11-.02-.21-.03-.3-.03Z"/>
    </g>
    <g>
      <path class="cls-17" d="M187.6,18.19s1.07-5.35,3.52-4.41c2.66,1.02-3.37,7.39-3.52,4.41Z"/>
      <path class="cls-18" d="M188.21,19.1s-.05,0-.07,0c-.28-.02-.62-.2-.66-.9v-.02s0-.02,0-.02c.03-.14.72-3.55,2.31-4.42.43-.24.9-.27,1.38-.09.63.24.88.8.7,1.57-.37,1.62-2.52,3.87-3.66,3.87ZM187.73,18.2c.04.61.33.64.43.65.02,0,.03,0,.05,0,.93,0,3.05-2.1,3.42-3.68.15-.65-.03-1.08-.55-1.28-.41-.16-.79-.14-1.17.07-1.43.79-2.13,3.99-2.18,4.24Z"/>
    </g>
    <g>
      <path class="cls-3" d="M186.31,18.79s-1.24-1.85-2.51-1.44-.77,2.08.88,2.41c1.72.35,2.2-.01,1.64-.97Z"/>
      <path class="cls-18" d="M185.75,20.02c-.29,0-.65-.04-1.1-.14-1.07-.22-1.66-.97-1.69-1.6-.03-.49.27-.89.8-1.06,1.36-.43,2.6,1.41,2.66,1.49h0c.26.46.31.79.15,1.02-.14.19-.4.28-.82.28ZM184.18,17.42c-.11,0-.23.02-.34.05-.42.13-.65.43-.63.81.03.53.55,1.17,1.49,1.37,1.23.25,1.57.08,1.66-.05.12-.17-.02-.49-.16-.74-.05-.07-1-1.44-2.03-1.44Z"/>
    </g>
    <g>
      <path class="cls-4" d="M184.69,3.29c.38-1.01,1.68-.99,2.48-.44.74.47,1.12,1.34,1.2,2.14.02.2.1.17.21.05.59-.8,2.21-2.18,3.47-1.34,1.11.9-.39,2.34-1.12,2.94-.46.4-.56.55-.17.72.82.31,2.23.79,2.91,1.81.75.98.51,2.72-.64,3.25-.46.14-.96-.31-1.78-.96-.56-.42-1.7-1.44-2.17-1.7-.06,0,.05.17.26.5.31.54.97,1.52.66,2.19-.09.19-.28.32-.49.35-.87.1-1.78-1.19-2.11-1.94-.11-.18-.18-.33-.38-.33-1.53.31-3.32-.05-4.67-.96-.84-.53-1.61-1.71-1.45-2.59.1-.89,1.16-1.53,2.47-.8,2.63,1.46,2.04.11,1.78-.43-.41-.82-.7-1.75-.45-2.44Z"/>
      <path class="cls-18" d="M189.41,12.93c-.89,0-1.77-1.22-2.13-2.02v-.02c-.12-.18-.16-.23-.27-.23-1.55.32-3.38-.06-4.74-.99-.87-.55-1.68-1.77-1.5-2.72.05-.44.32-.83.74-1.05.54-.28,1.24-.22,1.92.15,1.42.79,1.73.65,1.79.59.06-.06.11-.24-.19-.86-.53-1.06-.68-1.92-.46-2.54h0c.15-.41.45-.69.87-.82.56-.17,1.26-.05,1.8.32.68.43,1.15,1.25,1.25,2.2.72-.97,2.35-2.21,3.62-1.35.3.24.45.53.45.87,0,.81-.85,1.68-1.56,2.27-.09.08-.38.33-.37.4,0,0,.01.04.17.11l.12.04c.87.32,2.18.81,2.84,1.82.41.54.56,1.33.38,2.06-.16.63-.55,1.13-1.07,1.37-.5.16-.99-.24-1.73-.83l-.19-.15c-.2-.15-.47-.37-.75-.61-.34-.28-.71-.59-1.01-.81l.13.22c.35.59.88,1.48.57,2.15-.11.23-.33.39-.59.42-.04,0-.08,0-.11,0ZM186.98,10.4c.29,0,.4.18.5.36l.02.03c.36.82,1.24,1.96,1.99,1.88.17-.02.32-.13.39-.28.26-.54-.23-1.37-.56-1.91l-.14-.23c-.24-.38-.29-.46-.23-.55l.04-.07.14.02c.31.17.88.64,1.43,1.1.29.24.55.46.75.61l.19.15c.68.54,1.13.9,1.48.79.44-.2.77-.63.92-1.2.16-.66.04-1.37-.34-1.85-.62-.94-1.89-1.42-2.73-1.73l-.12-.05c-.15-.06-.3-.15-.32-.3-.03-.19.15-.36.45-.63.55-.46,1.47-1.34,1.47-2.08,0-.26-.12-.48-.35-.67-1.17-.78-2.72.55-3.29,1.32-.05.06-.16.17-.28.14-.12-.04-.14-.19-.15-.25-.09-.89-.52-1.65-1.15-2.04-.48-.33-1.1-.44-1.59-.29-.34.11-.58.34-.71.67-.2.56-.05,1.34.44,2.34.2.41.4.9.14,1.15-.17.17-.58.28-2.09-.55-.61-.34-1.22-.39-1.68-.15-.34.17-.56.5-.6.86-.16.85.61,1.98,1.39,2.47,1.32.89,3.07,1.25,4.58.95Z"/>
    </g>
    <g>
      <line class="cls-3" x1="187.01" y1="10.53" x2="187.06" y2="33.66"/>
      <polygon class="cls-18" points="186.94 33.66 186.88 10.53 187.13 10.53 187.19 33.66 186.94 33.66"/>
    </g>
    <g>
      <rect class="cls-17" x="190.13" y="18.55" width="1.99" height="1.99" rx="1" ry="1" transform="translate(331.7 -111.41) rotate(131.19)"/>
      <path class="cls-18" d="M191.12,20.66c-.27,0-.53-.1-.74-.28-.46-.41-.51-1.12-.1-1.58.41-.47,1.12-.51,1.58-.11.47.41.51,1.12.11,1.58-.2.23-.47.36-.77.38-.03,0-.05,0-.08,0ZM191.12,18.67c-.24,0-.48.1-.66.3-.32.36-.28.91.08,1.23.36.31.91.28,1.23-.08.32-.36.28-.91-.08-1.23-.16-.14-.37-.21-.57-.21Z"/>
    </g>
  </g>
  <g>
    <path class="cls-4" d="M120.28,51.7s-4.3,3.27-4.2,5.63,4.67.76,6.88-2.14,1.74-5.65-2.68-3.49Z"/>
    <path class="cls-18" d="M117.43,58.6c-.23,0-.43-.03-.62-.09-.54-.17-.83-.57-.86-1.17-.1-2.4,4.07-5.6,4.25-5.74h.02c1.89-.94,3.26-1.05,3.85-.33.64.78.24,2.34-1.02,3.99-1.42,1.86-3.98,3.33-5.62,3.33ZM120.34,51.81c-.22.17-4.24,3.3-4.14,5.52.02.49.25.81.68.95,1.3.41,4.26-.91,5.97-3.16,1.16-1.53,1.58-3.01,1.02-3.68-.5-.61-1.79-.48-3.54.38Z"/>
  </g>
  <g>
    <path class="cls-15" d="M326.41,44.02s-1.46-4.03,1.22-3.95,4.14,3.67,2.5,5.72-3.72-1.77-3.72-1.77Z"/>
    <path class="cls-18" d="M329.05,46.51s-.08,0-.12,0c-1.36-.12-2.58-2.34-2.63-2.43v-.02c-.04-.1-.87-2.42-.06-3.54.29-.41.78-.61,1.39-.59,1.25.04,2.35.82,2.93,2.08.61,1.32.48,2.83-.34,3.84-.35.43-.74.65-1.17.65ZM326.53,43.97c.08.15,1.24,2.19,2.43,2.29.38.04.75-.15,1.07-.55.76-.94.88-2.35.31-3.58-.54-1.18-1.56-1.9-2.71-1.94-.53-.01-.94.15-1.18.48-.71.98.03,3.14.08,3.3Z"/>
  </g>
  <g>
    <path class="cls-1" d="M60.07,69.73s-1.46-4.03,1.22-3.95,4.14,3.67,2.5,5.72-3.72-1.77-3.72-1.77Z"/>
    <path class="cls-18" d="M62.71,72.22s-.08,0-.12,0c-1.36-.12-2.58-2.34-2.63-2.43v-.02c-.04-.1-.87-2.42-.06-3.54.29-.41.75-.61,1.39-.58,1.25.04,2.35.82,2.93,2.08.61,1.32.48,2.83-.34,3.84-.35.43-.74.65-1.17.65ZM60.18,69.67c.08.15,1.24,2.19,2.43,2.29.39.04.75-.15,1.07-.55.76-.94.88-2.35.31-3.58-.54-1.18-1.56-1.9-2.71-1.94-.54-.02-.94.15-1.18.48-.71.98.03,3.14.08,3.3Z"/>
  </g>
</svg>